<svg width="897" height="757" viewBox="0 0 897 757" fill="none" xmlns="http://www.w3.org/2000/svg">
<g clip-path="url(#clip0_3001_921)">
<path d="M721.5 362.171C720.394 364.044 718.987 365.722 717.335 367.137C712.841 371.143 707.098 373.467 701.085 373.712C696.931 373.904 692.791 373.11 689.003 371.393C684.638 369.411 680.885 366.292 678.137 362.363C675.093 358.004 673.413 352.837 673.31 347.52C673.183 341.794 674.898 336.178 678.203 331.503C681.508 326.827 686.228 323.339 691.665 321.554C696.709 319.882 702.136 319.749 707.256 321.172C711.874 322.459 716.061 324.965 719.38 328.426C722.257 331.432 724.383 335.076 725.583 339.062C727.351 344.82 727.072 351.013 724.792 356.589C724.01 358.618 722.897 360.504 721.5 362.171C721.342 362.074 722.8 360.234 724.248 356.378C726.248 350.907 726.362 344.923 724.57 339.38C723.266 335.313 720.965 331.637 717.876 328.69C714.788 325.742 711.011 323.616 706.891 322.506C702.034 321.196 696.898 321.351 692.128 322.951C687 324.654 682.55 327.955 679.428 332.37C676.307 336.786 674.678 342.085 674.779 347.493C674.859 352.527 676.422 357.425 679.272 361.573C681.689 365.093 684.948 367.951 688.751 369.886C692.555 371.821 696.783 372.772 701.048 372.651C706.866 372.499 712.466 370.401 716.955 366.692C720.108 364.043 721.356 362.053 721.5 362.171Z" fill="#E0E0E0"/>
<path d="M739.254 392.327C739.552 392.403 739.842 392.504 740.123 392.628C740.76 392.877 741.615 393.211 742.721 393.642C745.094 394.595 748.512 395.967 752.95 397.748L752.663 397.831C756.238 392.711 760.939 385.979 766.625 377.836L766.653 378.31C763.657 375.002 760.327 371.325 756.765 367.39L756.587 367.194L756.68 366.942C758.501 361.982 759.655 356.803 760.114 351.539L760.139 351.242L760.416 351.127C764.654 349.357 769.242 347.442 774.013 345.449L773.691 346.033C772.378 338.465 770.985 330.433 769.523 321.999L770.073 322.49C765.519 322.256 760.503 321.999 755.361 321.735L754.987 321.715L754.83 321.372C752.633 316.584 749.809 312.11 746.432 308.069L746.181 307.769L746.331 307.405C748.073 303.182 749.994 298.525 751.951 293.782L752.182 294.585C745.927 290.166 739.183 285.401 732.27 280.517L733.14 280.466C729.733 283.538 725.991 286.911 722.199 290.329L721.879 290.618L721.474 290.467C716.545 288.641 711.396 287.478 706.162 287.008L705.725 286.969L705.556 286.561C703.789 282.294 701.862 277.64 699.916 272.938L700.718 273.382C693.113 274.688 684.961 276.088 676.698 277.508L677.316 276.812C677.069 281.463 676.804 286.483 676.535 291.539L676.512 291.993L676.099 292.182C671.326 294.365 666.865 297.176 662.833 300.54L662.828 300.545L662.825 300.547C662.481 300.6 663.59 300.432 662.054 300.666L662.041 300.661L662.014 300.65L661.96 300.627L661.853 300.583L661.639 300.494L661.21 300.316L660.354 299.961L658.644 299.251L655.233 297.834C652.963 296.892 650.703 295.954 648.452 295.019L649.35 294.759C644.591 301.488 639.897 308.126 635.267 314.672L635.213 313.746C638.525 317.438 641.805 321.093 645.053 324.711L645.351 325.044L645.196 325.461C643.36 330.39 642.189 335.542 641.716 340.781L641.676 341.22L641.27 341.389C636.665 343.292 632.127 345.168 627.655 347.017L628.085 346.236C629.481 354.445 630.844 362.461 632.174 370.283L631.53 369.71C636.521 369.982 641.424 370.25 646.239 370.513L646.647 370.535L646.816 370.905C648.994 375.699 651.803 380.18 655.166 384.229L655.418 384.533L655.267 384.895C653.326 389.56 651.444 394.083 649.606 398.5L649.39 397.751C656.378 402.724 662.975 407.418 669.254 411.886L668.539 411.928C672.398 408.472 676.021 405.229 679.514 402.101L679.758 401.882L680.062 401.996C685.001 403.848 690.164 405.035 695.415 405.524L695.714 405.552L695.827 405.827C697.857 410.785 699.686 415.251 701.414 419.47L700.93 419.202C710.243 417.649 718.177 416.326 724.97 415.193L724.691 415.506C725.042 409.627 725.329 404.805 725.569 400.787L725.578 400.64L725.71 400.58C729.348 398.942 732.819 396.956 736.075 394.65C737.099 393.897 737.884 393.321 738.459 392.899C738.708 392.687 738.974 392.496 739.254 392.327C739.03 392.566 738.79 392.79 738.536 392.998C738.037 393.42 737.28 394.057 736.221 394.851C733.008 397.26 729.553 399.327 725.911 401.02L726.051 400.813C725.864 404.833 725.638 409.659 725.363 415.542L725.35 415.809L725.084 415.856C718.301 417.049 710.378 418.442 701.079 420.078L700.732 420.139L700.594 419.81C698.838 415.602 696.979 411.149 694.916 406.204L695.327 406.507C689.981 406.043 684.721 404.866 679.686 403.007L680.234 402.902C676.756 406.047 673.15 409.309 669.307 412.784L668.966 413.091L668.59 412.825C662.293 408.382 655.677 403.715 648.669 398.771L648.262 398.484L648.453 398.022C650.276 393.598 652.143 389.069 654.068 384.397L654.17 385.062C650.718 380.932 647.833 376.359 645.592 371.465L646.168 371.857C641.351 371.606 636.447 371.35 631.457 371.091L630.906 371.062L630.812 370.516C629.467 362.7 628.088 354.687 626.676 346.477L626.579 345.914L627.107 345.695C631.581 343.837 636.117 341.954 640.714 340.045L640.269 340.651C640.746 335.282 641.939 330 643.816 324.947L643.958 325.697C640.707 322.081 637.424 318.429 634.108 314.74L633.711 314.299L634.054 313.813C638.679 307.267 643.37 300.627 648.127 293.893L648.473 293.404L649.026 293.634C651.277 294.567 653.537 295.505 655.808 296.448L659.219 297.864L660.929 298.573L661.785 298.929L662.214 299.106L662.428 299.196L662.535 299.24L662.588 299.262L662.615 299.273L662.628 299.279C661.094 299.513 662.205 299.343 661.863 299.394L661.866 299.392L661.872 299.387C666.006 295.938 670.581 293.056 675.476 290.818L675.04 291.459C675.31 286.404 675.579 281.384 675.827 276.733L675.859 276.137L676.446 276.036C684.711 274.624 692.864 273.231 700.47 271.931L701.05 271.832L701.274 272.375C703.215 277.08 705.136 281.737 706.897 286.006L706.292 285.56C711.653 286.05 716.925 287.25 721.97 289.129L721.246 289.267C725.044 285.857 728.793 282.491 732.206 279.426L732.622 279.053L733.077 279.376C739.978 284.276 746.711 289.058 752.955 293.492L753.391 293.802L753.187 294.296C751.216 299.032 749.281 303.684 747.526 307.901L747.425 307.239C750.862 311.378 753.732 315.958 755.958 320.857L755.427 320.495C760.568 320.779 765.583 321.057 770.136 321.309L770.609 321.334L770.688 321.799C772.111 330.24 773.467 338.278 774.744 345.853L774.816 346.276L774.422 346.438C769.639 348.403 765.041 350.293 760.793 352.038L761.096 351.627C760.598 356.971 759.391 362.225 757.505 367.249L757.42 366.801C760.95 370.764 764.25 374.468 767.219 377.801L767.423 378.03L767.247 378.276C761.466 386.353 756.688 393.03 753.054 398.108L752.941 398.266L752.766 398.191C748.41 396.325 745.054 394.887 742.725 393.889C741.623 393.404 740.772 393.031 740.138 392.752C739.834 392.63 739.539 392.488 739.254 392.327Z" fill="#E0E0E0"/>
<path fill-rule="evenodd" clip-rule="evenodd" d="M715.851 210.751C710.075 215.573 703.683 219.602 696.842 222.732L695.735 243.551L661.768 249.37L653.804 230.106C646.312 229.434 638.942 227.763 631.892 225.138L616.407 239.071L588.281 219.142L596.253 199.891C591.433 194.11 587.408 187.709 584.285 180.858L563.485 179.749L557.671 145.753L576.916 137.779C577.589 130.279 579.26 122.903 581.884 115.846L567.963 100.348L587.87 72.1865L607.103 80.1704C612.878 75.3459 619.272 71.3167 626.114 68.1902L627.223 47.3669L661.189 41.5479L669.152 60.8161C676.644 61.4902 684.012 63.161 691.062 65.7846L706.546 51.8546L734.676 71.7805L726.701 91.0306C731.522 96.8116 735.547 103.213 738.67 110.064L759.471 111.173L765.286 145.169L746.038 153.143C745.366 160.643 743.696 168.019 741.073 175.076L754.991 190.574L735.086 218.73L715.851 210.751ZM690.748 168.115C694.972 162.141 697.33 155.047 697.526 147.731C697.722 140.415 695.747 133.205 691.849 127.013C687.951 120.821 682.307 115.925 675.63 112.944C668.952 109.963 661.542 109.031 654.335 110.266C647.129 111.501 640.45 114.847 635.143 119.882C629.836 124.916 626.14 131.413 624.522 138.55C622.904 145.687 623.437 153.144 626.053 159.979C628.669 166.813 633.25 172.717 639.218 176.945C643.181 179.752 647.657 181.75 652.392 182.826C657.126 183.901 662.025 184.033 666.81 183.213C671.595 182.393 676.172 180.637 680.279 178.047C684.387 175.456 687.944 172.081 690.748 168.115Z" fill="#E0E0E0"/>
<path fill-rule="evenodd" clip-rule="evenodd" d="M289.276 204.489C294.133 209.685 298.275 215.506 301.594 221.799L321.279 221.724L328.594 253.493L310.863 262.054C310.633 269.167 309.455 276.218 307.36 283.019L321.328 296.894L304.057 324.535L285.48 318.042C280.29 322.906 274.473 327.052 268.183 330.371L268.258 350.078L236.524 357.401L227.971 339.652C220.864 339.42 213.821 338.239 207.027 336.14L193.168 350.124L165.549 332.838L172.039 314.241C167.18 309.047 163.038 303.224 159.722 296.929L140.033 297.004L132.718 265.234L150.452 256.674C150.684 249.562 151.863 242.512 153.956 235.711L139.991 221.836L157.259 194.193L175.835 200.689C181.025 195.824 186.843 191.677 193.132 188.358L193.057 168.65L224.792 161.327L233.344 179.078C240.451 179.309 247.494 180.489 254.288 182.587L268.148 168.606L295.762 185.891L289.276 204.489ZM250.436 230.497C244.577 226.829 237.763 224.983 230.856 225.192C223.949 225.401 217.259 227.656 211.631 231.671C206.004 235.686 201.693 241.281 199.242 247.749C196.792 254.216 196.313 261.266 197.865 268.007C199.417 274.747 202.931 280.876 207.963 285.617C212.995 290.358 219.318 293.5 226.133 294.644C232.949 295.787 239.95 294.883 246.251 292.044C252.553 289.205 257.872 284.559 261.536 278.694C263.968 274.8 265.611 270.464 266.37 265.934C267.129 261.405 266.989 256.77 265.958 252.294C264.927 247.819 263.026 243.59 260.363 239.85C257.7 236.11 254.327 232.932 250.436 230.497Z" fill="#E0E0E0"/>
<path fill-rule="evenodd" clip-rule="evenodd" d="M308.452 70.8678C311.141 73.7448 313.434 76.9678 315.271 80.4516L326.17 80.41L330.22 97.9993L320.403 102.738C320.276 106.677 319.624 110.58 318.464 114.346L326.197 122.028L316.635 137.331L306.35 133.736C303.477 136.429 300.256 138.725 296.774 140.562L296.815 151.473L279.246 155.527L274.51 145.7C270.576 145.572 266.676 144.918 262.915 143.756L255.242 151.499L239.951 141.928L243.544 131.632C240.854 128.756 238.56 125.532 236.725 122.047L225.824 122.089L221.774 104.499L231.593 99.7603C231.721 95.8225 232.374 91.9195 233.532 88.1543L225.801 80.4726L235.361 65.1677L245.646 68.7641C248.519 66.0708 251.74 63.7747 255.222 61.937L255.181 51.0262L272.75 46.9717L277.486 56.7996C281.42 56.9274 285.32 57.5807 289.081 58.7424L296.754 51.0016L312.042 60.5715L308.452 70.8678ZM286.948 85.2672C283.704 83.2367 279.932 82.2147 276.108 82.3304C272.284 82.4462 268.58 83.6944 265.464 85.9173C262.349 88.1402 259.962 91.238 258.605 94.8188C257.248 98.3997 256.983 102.303 257.843 106.035C258.702 109.766 260.648 113.159 263.433 115.784C266.219 118.409 269.72 120.148 273.493 120.782C277.266 121.415 281.142 120.914 284.631 119.342C288.12 117.771 291.065 115.199 293.093 111.951C294.44 109.795 295.35 107.395 295.77 104.887C296.19 102.379 296.112 99.8132 295.542 97.3353C294.971 94.8574 293.918 92.5164 292.444 90.4457C290.97 88.3751 289.102 86.6154 286.948 85.2672Z" fill="#E0E0E0"/>
<path d="M155.572 103.38C155.885 103.504 156.18 103.669 156.45 103.871C157.267 104.389 158.02 105 158.696 105.693C161.254 108.248 162.847 111.613 163.202 115.213C163.462 117.701 163.13 120.215 162.232 122.549C161.195 125.239 159.455 127.6 157.194 129.387C154.685 131.366 151.646 132.553 148.461 132.798C145.032 133.071 141.606 132.233 138.689 130.407C135.772 128.581 133.519 125.865 132.263 122.659C131.088 119.686 130.823 116.43 131.502 113.305C132.117 110.488 133.476 107.888 135.439 105.776C137.143 103.947 139.255 102.547 141.603 101.692C144.992 100.436 148.712 100.397 152.127 101.581C153.044 101.886 153.923 102.296 154.746 102.804C155.045 102.959 155.323 103.152 155.572 103.38C155.516 103.484 154.362 102.678 152.008 101.949C148.672 100.946 145.097 101.087 141.851 102.35C139.471 103.27 137.359 104.772 135.707 106.719C134.056 108.666 132.918 110.996 132.397 113.497C131.782 116.443 132.05 119.505 133.167 122.3C134.358 125.305 136.477 127.85 139.215 129.564C141.954 131.278 145.168 132.071 148.388 131.826C151.386 131.608 154.254 130.508 156.63 128.666C158.648 127.102 160.242 125.058 161.268 122.72C162.294 120.381 162.718 117.823 162.503 115.278C162.217 111.803 160.779 108.524 158.417 105.961C156.731 104.161 155.503 103.475 155.572 103.38Z" fill="#E0E0E0"/>
<path d="M172.995 91.7126C173.028 91.532 173.077 91.3547 173.142 91.1829L173.656 89.5915C174.145 88.1282 174.845 86.037 175.755 83.3178L175.82 83.5043C172.631 81.5365 168.445 78.9533 163.383 75.8297L163.695 75.7934C161.82 77.7026 159.736 79.8239 157.506 82.0931L157.384 82.2183L157.213 82.1664C154.188 81.247 151.054 80.7338 147.894 80.6401L147.697 80.6344L147.61 80.4553C146.407 77.9771 145.104 75.2945 143.749 72.5045L144.147 72.6956C139.666 73.7418 134.912 74.8516 129.92 76.0171L130.223 75.6344C130.239 78.3711 130.257 81.3851 130.275 84.4746L130.277 84.7229L130.057 84.8397C127.272 86.3183 124.697 88.1615 122.399 90.3207L122.21 90.4982L121.964 90.4127L113.627 87.5124L114.148 87.329C111.72 91.2274 109.102 95.4314 106.418 99.74L106.352 99.1666C108.305 101.103 110.45 103.229 112.623 105.384L112.826 105.585L112.742 105.858C111.82 108.87 111.302 111.99 111.199 115.138L111.19 115.429L110.928 115.556C108.437 116.761 105.72 118.074 102.975 119.401L103.238 118.853C104.279 123.365 105.394 128.201 106.526 133.103L106.043 132.721C108.833 132.709 111.843 132.697 114.875 132.685L115.176 132.684L115.316 132.95C116.783 135.731 118.614 138.304 120.76 140.601L120.762 140.605L120.764 140.606C120.812 140.831 120.659 140.104 120.872 141.112L120.869 141.12L120.863 141.136L120.851 141.169L120.828 141.235L120.783 141.366L120.691 141.629L120.508 142.154L120.142 143.202L119.411 145.295C118.926 146.687 118.442 148.073 117.959 149.453L117.754 148.869C121.94 151.491 126.069 154.077 130.142 156.627L129.532 156.698C131.626 154.587 133.7 152.497 135.752 150.428L135.961 150.218L136.242 150.305C139.248 151.236 142.364 151.76 145.509 151.865L145.8 151.875L145.927 152.137C147.222 154.831 148.499 157.486 149.757 160.102L149.225 159.847C154.085 158.731 158.831 157.641 163.463 156.577L163.109 157.025C163.102 154.025 163.095 151.079 163.088 148.185L163.087 147.914L163.325 147.789C166.114 146.322 168.694 144.489 170.998 142.338L171.189 142.16L171.434 142.246C174.289 143.25 177.058 144.224 179.761 145.174L179.275 145.346C182.011 140.99 184.593 136.878 187.051 132.964L187.106 133.435C184.908 131.241 182.845 129.181 180.856 127.194L180.703 127.041L180.767 126.835C181.705 123.816 182.239 120.686 182.352 117.526L182.36 117.327L182.537 117.242C185.432 115.857 188.041 114.61 190.505 113.431L190.347 113.762C189.103 108.236 188.042 103.528 187.134 99.4945L187.352 99.667C183.827 99.6554 180.934 99.6459 178.521 99.6378L178.423 99.6377L178.379 99.5525C177.277 97.429 175.974 95.4166 174.487 93.5432C174.007 92.9581 173.637 92.5078 173.361 92.1726C173.226 92.0304 173.103 91.8765 172.995 91.7126C173.148 91.837 173.291 91.9724 173.424 92.1177C173.694 92.4015 174.102 92.8323 174.614 93.4391C176.167 95.2805 177.524 97.2793 178.662 99.4031L178.52 99.3179C180.933 99.2916 183.825 99.2599 187.35 99.2213L187.527 99.2194L187.568 99.3943C188.515 103.418 189.621 108.117 190.919 113.63L190.972 113.857L190.76 113.961L182.821 117.83L183.005 117.547C182.911 120.769 182.387 123.963 181.448 127.046L181.358 126.688C183.358 128.664 185.432 130.712 187.641 132.895L187.857 133.108L187.696 133.367C185.255 137.293 182.691 141.416 179.976 145.784L179.802 146.064L179.489 145.955C176.782 145.015 174.01 144.052 171.151 143.058L171.585 142.966C169.232 145.178 166.594 147.065 163.741 148.577L163.978 148.181C163.993 151.076 164.008 154.022 164.023 157.021L164.025 157.387L163.669 157.469C159.041 158.543 154.297 159.643 149.437 160.77L149.069 160.855L148.904 160.514C147.64 157.897 146.359 155.244 145.06 152.556L145.478 152.828C142.247 152.724 139.044 152.19 135.955 151.237L136.444 151.115C134.393 153.186 132.322 155.278 130.23 157.391L129.954 157.67L129.62 157.462C125.548 154.914 121.417 152.331 117.229 149.711L116.893 149.501L117.023 149.126C117.505 147.746 117.989 146.359 118.474 144.967L119.204 142.875L119.57 141.826L119.753 141.301L119.845 141.038L119.891 140.907L119.914 140.841L119.925 140.808L119.931 140.792L119.934 140.784C120.147 141.79 119.992 141.062 120.039 141.286L120.038 141.284L120.035 141.281C117.828 138.919 115.947 136.273 114.439 133.413L114.879 133.677C111.847 133.688 108.836 133.699 106.047 133.708L105.653 133.71L105.564 133.325C104.438 128.422 103.326 123.585 102.289 119.072L102.202 118.692L102.552 118.524C105.299 117.201 108.018 115.891 110.51 114.69L110.239 115.107C110.349 111.875 110.887 108.671 111.84 105.58L111.958 106.054C109.79 103.895 107.65 101.764 105.701 99.8234L105.438 99.5623L105.634 99.2494C108.329 94.9479 110.959 90.7509 113.397 86.8591L113.586 86.5584L113.919 86.6756C116.818 87.6949 119.665 88.6957 122.247 89.6032L121.813 89.695C124.173 87.4924 126.817 85.6152 129.674 84.1132L129.455 84.4776C129.45 81.3882 129.445 78.3742 129.441 75.6375L129.44 75.3235L129.744 75.2542C134.742 74.1142 139.502 73.0287 143.988 72.0054L144.264 71.9424L144.386 72.1968C145.724 74.9952 147.01 77.6858 148.198 80.1717L147.915 79.9873C151.13 80.1036 154.315 80.649 157.385 81.609L157.093 81.6821C159.342 79.4332 161.445 77.3306 163.338 75.4382L163.481 75.2947L163.65 75.4021C168.672 78.5902 172.825 81.2269 175.988 83.2352L176.097 83.3043L176.054 83.4224C175.086 86.0875 174.341 88.14 173.818 89.5799C173.567 90.2499 173.371 90.774 173.223 91.1686C173.16 91.3553 173.084 91.5371 172.995 91.7126Z" fill="#E0E0E0"/>
<path d="M608.026 747.469L354.669 746.296C340.036 746.228 326.029 740.346 315.727 729.943C305.426 719.54 299.674 705.467 299.736 690.819L302.421 55.0122C302.451 47.7556 303.91 40.5761 306.713 33.8839C309.516 27.1916 313.609 21.1177 318.757 16.0092C323.906 10.9006 330.01 6.85743 336.72 4.11063C343.43 1.36384 350.615 -0.0327705 357.864 0.000583619L611.221 1.17203C625.854 1.23997 639.861 7.12239 650.162 17.5259C660.463 27.9294 666.216 42.0022 666.154 56.65L663.469 692.458C663.438 699.715 661.98 706.894 659.176 713.587C656.373 720.279 652.281 726.353 647.132 731.461C641.983 736.57 635.88 740.613 629.17 743.359C622.46 746.106 615.275 747.502 608.026 747.469Z" fill="#455A64"/>
<path d="M610.859 23.1155L561.737 22.8889C558.503 22.9474 555.424 24.2893 553.177 26.6195C550.931 28.9497 549.701 32.0776 549.758 35.3153L549.718 44.2347C549.775 47.4726 548.546 50.6007 546.299 52.9311C544.053 55.2615 540.973 56.6034 537.739 56.6615L441.99 56.2184C438.755 56.1298 435.688 54.7597 433.462 52.4092C431.235 50.0586 430.031 46.9196 430.115 43.6815L430.153 34.7625C430.237 31.5243 429.033 28.3853 426.806 26.0348C424.579 23.6842 421.512 22.3142 418.277 22.2256L401.001 22.145L358.008 21.9467C352.931 21.9234 347.899 22.9016 343.2 24.8253C338.501 26.749 334.226 29.5806 330.62 33.1584C327.015 36.7361 324.148 40.9899 322.185 45.6768C320.222 50.3636 319.201 55.3917 319.179 60.4738L316.558 681.067C316.515 691.326 320.543 701.182 327.757 708.469C334.972 715.755 344.782 719.875 355.031 719.923L607.881 721.091C612.958 721.114 617.99 720.136 622.689 718.212C627.388 716.289 631.663 713.457 635.268 709.879C638.874 706.302 641.74 702.048 643.704 697.361C645.667 692.675 646.688 687.647 646.71 682.565L649.331 61.9688C649.374 51.7103 645.345 41.8547 638.131 34.5688C630.916 27.2829 621.107 23.1632 610.859 23.1155Z" fill="#FAFAFA"/>
<path d="M437.689 188.71H536.928C541.865 188.71 546.601 190.673 550.092 194.168C553.584 197.663 555.545 202.404 555.545 207.346V306.684C555.545 311.627 553.584 316.367 550.092 319.862C546.601 323.357 541.865 325.321 536.928 325.321H437.689C432.752 325.321 428.016 323.357 424.525 319.862C421.033 316.367 419.072 311.627 419.072 306.684V207.346C419.072 202.404 421.033 197.663 424.525 194.168C428.016 190.673 432.752 188.71 437.689 188.71Z" fill="#6E96C2"/>
<path d="M383.061 238.404L386.353 245.078L393.709 246.148L388.385 251.342L389.642 258.678L383.061 255.215L376.481 258.678L377.737 251.342L372.413 246.148L379.772 245.078L383.061 238.404Z" fill="#6E96C2"/>
<path d="M595.677 172.26L598.221 177.419L603.91 178.248L599.792 182.264L600.765 187.937L595.677 185.259L590.588 187.937L591.56 182.264L587.443 178.248L593.132 177.419L595.677 172.26Z" fill="#6E96C2"/>
<path d="M590.674 296.053L592.88 299.048L596.596 298.926L594.432 301.953L595.696 305.452L592.151 304.327L589.219 306.61L589.192 302.89L586.114 300.802L589.642 299.628L590.674 296.053Z" fill="#6E96C2"/>
<path d="M380.534 194.105C379.846 194.105 379.173 193.9 378.601 193.518C378.028 193.135 377.582 192.591 377.319 191.954C377.055 191.317 376.986 190.617 377.121 189.941C377.255 189.265 377.586 188.644 378.073 188.157C378.56 187.67 379.18 187.338 379.855 187.204C380.53 187.069 381.23 187.138 381.866 187.402C382.502 187.666 383.046 188.112 383.428 188.685C383.811 189.258 384.015 189.932 384.015 190.621C384.014 191.544 383.647 192.43 382.994 193.083C382.342 193.736 381.457 194.104 380.534 194.105ZM380.534 189.046C380.223 189.046 379.919 189.138 379.66 189.311C379.401 189.484 379.199 189.73 379.08 190.018C378.961 190.306 378.93 190.622 378.991 190.928C379.052 191.234 379.201 191.514 379.421 191.734C379.642 191.955 379.922 192.105 380.227 192.166C380.532 192.226 380.849 192.195 381.136 192.076C381.424 191.957 381.67 191.755 381.843 191.496C382.015 191.237 382.108 190.932 382.108 190.621C382.107 190.203 381.941 189.803 381.646 189.507C381.351 189.212 380.951 189.046 380.534 189.046Z" fill="#6E96C2"/>
<path d="M577.288 242.261C576.6 242.261 575.927 242.057 575.354 241.674C574.782 241.291 574.336 240.747 574.073 240.11C573.809 239.474 573.74 238.773 573.874 238.097C574.009 237.421 574.34 236.801 574.827 236.313C575.314 235.826 575.934 235.494 576.609 235.36C577.284 235.225 577.984 235.294 578.62 235.558C579.256 235.822 579.8 236.268 580.182 236.841C580.564 237.414 580.769 238.088 580.769 238.777C580.768 239.701 580.401 240.586 579.748 241.239C579.096 241.893 578.211 242.26 577.288 242.261ZM577.288 237.202C576.977 237.202 576.673 237.294 576.414 237.467C576.155 237.64 575.953 237.886 575.834 238.174C575.715 238.462 575.684 238.779 575.745 239.084C575.806 239.39 575.955 239.67 576.175 239.891C576.395 240.111 576.676 240.261 576.981 240.322C577.286 240.383 577.603 240.351 577.89 240.232C578.178 240.113 578.424 239.911 578.596 239.652C578.769 239.393 578.862 239.088 578.862 238.777C578.861 238.359 578.695 237.959 578.4 237.664C578.105 237.368 577.705 237.202 577.288 237.202Z" fill="#6E96C2"/>
<path d="M531.871 168.734C531.182 168.734 530.509 168.529 529.937 168.147C529.365 167.764 528.919 167.22 528.655 166.583C528.392 165.946 528.323 165.246 528.457 164.57C528.591 163.894 528.923 163.273 529.41 162.786C529.896 162.299 530.516 161.967 531.192 161.833C531.867 161.698 532.567 161.767 533.203 162.031C533.839 162.295 534.382 162.741 534.765 163.314C535.147 163.887 535.351 164.561 535.351 165.25C535.35 166.173 534.983 167.059 534.331 167.712C533.678 168.365 532.794 168.733 531.871 168.734ZM531.871 163.674C531.56 163.674 531.255 163.767 530.997 163.94C530.738 164.113 530.536 164.359 530.417 164.647C530.298 164.935 530.267 165.251 530.327 165.557C530.388 165.862 530.538 166.143 530.758 166.363C530.978 166.584 531.258 166.734 531.564 166.794C531.869 166.855 532.185 166.824 532.473 166.705C532.76 166.586 533.006 166.384 533.179 166.125C533.352 165.866 533.444 165.561 533.444 165.25C533.444 164.832 533.278 164.432 532.983 164.136C532.688 163.841 532.288 163.675 531.871 163.674Z" fill="#6E96C2"/>
<path d="M361.6 306.391C362.996 306.391 364.127 305.259 364.127 303.862C364.127 302.465 362.996 301.332 361.6 301.332C360.205 301.332 359.073 302.465 359.073 303.862C359.073 305.259 360.205 306.391 361.6 306.391Z" fill="#6E96C2"/>
<path d="M480.667 339.964C480.667 340.464 480.519 340.954 480.241 341.37C479.964 341.786 479.569 342.11 479.107 342.301C478.645 342.493 478.137 342.543 477.647 342.445C477.157 342.348 476.706 342.107 476.353 341.753C476 341.399 475.759 340.948 475.661 340.458C475.564 339.967 475.614 339.458 475.805 338.996C475.996 338.534 476.32 338.139 476.736 337.861C477.152 337.583 477.64 337.435 478.14 337.435C478.81 337.435 479.453 337.701 479.927 338.175C480.401 338.65 480.667 339.293 480.667 339.964Z" fill="#6E96C2"/>
<path d="M453.631 142.11C455.026 142.11 456.158 140.977 456.158 139.58C456.158 138.183 455.026 137.051 453.631 137.051C452.235 137.051 451.104 138.183 451.104 139.58C451.104 140.977 452.235 142.11 453.631 142.11Z" fill="#6E96C2"/>
<path d="M577.596 369.32H438.244V470.229H577.596V369.32Z" fill="#B3695C"/>
<path d="M513.947 369.32H392.467V470.229H513.947V369.32Z" fill="#CC786B"/>
<path d="M392.466 369.32L370.903 347.733H425.553L445.852 369.32H392.466Z" fill="#B3695C"/>
<path d="M513.948 369.32L538.757 347.733H606.816L577.596 369.32H513.948Z" fill="#CC786B"/>
<path d="M513.947 369.32C513.947 369.595 486.751 369.817 453.21 369.817C419.657 369.817 392.467 369.595 392.467 369.32C392.467 369.046 419.657 368.823 453.21 368.823C486.751 368.823 513.947 369.046 513.947 369.32Z" fill="#CC786B"/>
<path d="M375.145 577.604H599.472C600.743 577.604 602.002 577.855 603.177 578.342C604.352 578.829 605.419 579.543 606.318 580.443C607.217 581.343 607.931 582.412 608.417 583.588C608.904 584.764 609.154 586.024 609.154 587.297V587.767C609.154 589.04 608.904 590.301 608.417 591.476C607.931 592.652 607.217 593.721 606.318 594.621C605.419 595.521 604.352 596.235 603.177 596.722C602.002 597.209 600.743 597.46 599.472 597.46H375.145C372.577 597.46 370.114 596.439 368.298 594.621C366.482 592.803 365.462 590.338 365.462 587.767V587.297C365.462 584.727 366.482 582.261 368.298 580.443C370.114 578.626 372.577 577.604 375.145 577.604Z" fill="#E0E0E0"/>
<path d="M485.074 577.604H375.145C369.797 577.604 365.462 581.944 365.462 587.297V587.767C365.462 593.12 369.797 597.46 375.145 597.46H485.074C490.422 597.46 494.757 593.12 494.757 587.767V587.297C494.757 581.944 490.422 577.604 485.074 577.604Z" fill="#6E96C2"/>
<path d="M471.194 646.239C471.194 650.304 468.362 653.483 462.525 653.483C459.382 653.588 456.317 652.488 453.958 650.407L455.153 648.461C457.142 650.31 459.777 651.304 462.49 651.227C466.551 651.227 468.702 649.246 468.702 646.341C468.702 643.267 466.792 641.353 460.715 641.353H455.63L456.859 629.361H469.931V631.548H459.01L458.19 639.166H461.261C468.464 639.166 471.194 642.003 471.194 646.239Z" fill="#6E96C2"/>
<path d="M490.34 646.239C490.34 650.304 487.507 653.483 481.671 653.483C478.528 653.588 475.463 652.488 473.103 650.407L474.298 648.461C476.287 650.31 478.922 651.304 481.636 651.227C485.697 651.227 487.848 649.246 487.848 646.341C487.848 643.267 485.937 641.353 479.861 641.353H474.775L476.004 629.361H489.077V631.548H478.155L477.336 639.166H480.407C487.61 639.166 490.34 642.003 490.34 646.239Z" fill="#6E96C2"/>
<path d="M492.761 635.683C492.761 631.789 494.945 629.192 498.154 629.192C501.327 629.192 503.545 631.754 503.545 635.683C503.545 639.613 501.327 642.174 498.154 642.174C494.945 642.174 492.761 639.577 492.761 635.683ZM501.839 635.683C501.839 632.574 500.372 630.728 498.154 630.728C495.9 630.728 494.466 632.607 494.466 635.683C494.466 638.759 495.9 640.638 498.154 640.638C500.372 640.638 501.839 638.792 501.839 635.683ZM512.625 629.362H514.638L498.323 653.278H496.31L512.625 629.362ZM507.403 646.957C507.403 643.063 509.621 640.466 512.794 640.466C516.003 640.466 518.187 643.063 518.187 646.957C518.187 650.853 516.003 653.45 512.794 653.45C509.621 653.45 507.403 650.853 507.403 646.957ZM516.481 646.957C516.481 643.883 515.048 642.004 512.794 642.004C510.577 642.004 509.109 643.848 509.109 646.957C509.109 650.066 510.577 651.912 512.794 651.912C515.048 651.912 516.481 650.033 516.481 646.957Z" fill="#6E96C2"/>
<path d="M897 746.909C897 747.184 696.184 747.406 448.521 747.406C200.773 747.406 0 747.184 0 746.909C0 746.635 200.773 746.412 448.521 746.412C696.184 746.412 897 746.635 897 746.909Z" fill="#263238"/>
<path d="M350.034 725.121L355.51 746.119L416.894 745.555C416.894 745.555 408.502 739.206 377.656 739.667L374.664 725.121H350.034Z" fill="#924B40"/>
<path d="M283.112 487.919L237.067 492.268L218.36 497.568C210.366 499.833 203.051 504.03 197.057 509.789L136.782 567.702L125.779 477.734L95.665 480.356L100.69 596.162C102.912 603.131 107.289 609.212 113.189 613.527C119.089 617.843 126.207 620.169 133.514 620.17C142.573 620.052 151.245 616.479 157.762 610.18L200.682 569.799L196.418 623.085L181.666 656.208L287.021 715.767C287.021 715.767 299.396 654.451 306.04 612.034C311.414 577.719 314.146 502.977 314.146 502.977L283.112 487.919Z" fill="#6E96C2"/>
<path d="M311.404 501.917C311.404 501.917 334.701 510.561 340.334 528.824C345.329 545.02 361.995 636.096 361.995 636.096L378.531 732.49L343.907 733.807L304.038 569.524L311.404 501.917Z" fill="#6E96C2"/>
<path d="M195.544 620.723C195.27 620.697 196.814 602.243 198.99 579.511C201.167 556.771 203.153 538.364 203.426 538.39C203.699 538.416 202.156 556.866 199.979 579.606C197.802 602.338 195.816 620.749 195.544 620.723Z" fill="#263238"/>
<path d="M272.225 575.414C272.166 575.727 272.063 576.03 271.92 576.315C271.635 576.995 271.287 577.823 270.867 578.825C270.323 580.156 269.704 581.455 269.013 582.715C268.219 584.196 267.397 585.932 266.24 587.707C265.682 588.613 265.101 589.556 264.496 590.538C263.881 591.517 263.147 592.472 262.438 593.496C261.049 595.569 259.328 597.601 257.564 599.779C249.657 609.066 240.022 616.725 229.195 622.331C226.677 623.558 224.309 624.776 221.977 625.66C220.82 626.121 219.725 626.62 218.633 626.997C217.541 627.365 216.491 627.718 215.484 628.057C213.494 628.783 211.618 629.191 209.998 629.631C208.615 630.019 207.211 630.328 205.793 630.556C204.723 630.74 203.839 630.891 203.112 631.015C202.803 631.09 202.485 631.121 202.167 631.108C202.456 630.97 202.761 630.872 203.076 630.818C203.79 630.645 204.66 630.434 205.712 630.178C206.862 629.929 208.261 629.599 209.855 629.093C211.452 628.606 213.3 628.154 215.26 627.39C216.252 627.035 217.286 626.665 218.363 626.28C219.439 625.887 220.518 625.373 221.657 624.901C223.955 623.992 226.288 622.757 228.77 621.52C239.438 615.88 248.967 608.305 256.871 599.181C258.636 597.04 260.366 595.046 261.771 593.012C262.488 592.008 263.233 591.073 263.858 590.112C264.476 589.151 265.071 588.226 265.642 587.339C266.829 585.601 267.687 583.901 268.523 582.454C269.376 581.015 270.014 579.725 270.517 578.66C271.004 577.692 271.406 576.892 271.737 576.235C271.861 575.94 272.025 575.664 272.225 575.414Z" fill="#263238"/>
<g opacity="0.2">
<path d="M207.769 630.07C206.138 629.435 204.801 628.215 204.017 626.649C203.233 625.083 203.058 623.281 203.526 621.593C204.064 619.924 204.955 618.391 206.139 617.099C207.323 615.807 208.772 614.786 210.386 614.106C213.618 612.771 216.979 611.775 220.417 611.134C235.224 607.491 248.764 599.887 259.588 589.137C260.584 588.144 262.004 587.044 263.238 587.718C264.895 588.624 263.856 591.159 262.627 592.594C247.718 609.944 228.389 622.925 206.697 630.155" fill="#617B97"/>
</g>
<path d="M312.959 608.375C312.644 607.753 312.408 607.095 312.255 606.415C311.864 605.137 311.338 603.276 310.717 600.97C309.474 596.357 307.873 589.954 306.274 582.842C304.677 575.728 303.385 569.254 302.535 564.553C302.11 562.202 301.79 560.296 301.597 558.973C301.444 558.293 301.375 557.597 301.394 556.9C301.67 557.54 301.866 558.211 301.976 558.899C302.319 560.414 302.735 562.252 303.224 564.414C304.304 569.31 305.7 575.632 307.243 582.624C308.838 589.602 310.281 595.912 311.398 600.8C311.881 602.962 312.291 604.802 312.63 606.319C312.824 606.988 312.934 607.679 312.959 608.375Z" fill="#263238"/>
<path d="M100.991 489.006C100.077 486.039 99.8132 482.91 100.218 479.832C101.132 482.799 101.396 485.928 100.991 489.006Z" fill="#263238"/>
<path d="M109.802 489.284C108.978 486.109 108.81 482.799 109.307 479.557C110.132 482.732 110.3 486.042 109.802 489.284Z" fill="#263238"/>
<path d="M118.561 488.721C117.7 485.177 117.495 481.505 117.956 477.888C118.817 481.431 119.022 485.103 118.561 488.721Z" fill="#263238"/>
<path d="M135.494 581.521C135.378 576.193 135.926 570.872 137.126 565.681C137.243 571.008 136.695 576.329 135.494 581.521Z" fill="#263238"/>
<path d="M349.6 723.77C350.813 726.902 351.389 730.246 351.297 733.604C350.085 730.471 349.508 727.128 349.6 723.77Z" fill="#263238"/>
<path d="M360.987 723.762C362.128 726.592 362.634 729.638 362.47 732.686C361.328 729.856 360.822 726.809 360.987 723.762Z" fill="#263238"/>
<path d="M371.789 722.664C372.742 725.92 373.307 729.277 373.472 732.666C372.01 729.548 371.428 726.089 371.789 722.664Z" fill="#263238"/>
<path d="M330.1 513.144C330.1 513.328 327.682 513.182 323.928 513.968C319.033 514.958 314.48 517.208 310.717 520.496C306.954 523.783 304.111 527.995 302.469 532.716C301.183 536.332 301.001 538.751 300.819 538.725C300.733 538.161 300.743 537.587 300.85 537.026C301.02 535.488 301.339 533.97 301.803 532.494C303.316 527.557 306.177 523.142 310.064 519.747C313.95 516.351 318.707 514.111 323.798 513.277C325.322 513.017 326.868 512.906 328.414 512.945C328.983 512.915 329.553 512.983 330.1 513.144Z" fill="#263238"/>
<path d="M344.338 552.326C342.498 553.304 340.576 554.12 338.594 554.764C334.992 556.129 329.969 557.891 324.359 559.645C318.747 561.398 313.614 562.811 309.877 563.741C307.881 564.34 305.837 564.763 303.768 565.007C305.691 564.214 307.671 563.564 309.691 563.063C313.647 561.861 318.593 560.358 324.063 558.696C329.505 556.948 334.425 555.366 338.361 554.101C340.307 553.362 342.305 552.769 344.338 552.326Z" fill="#FAFAFA"/>
<path d="M359.024 618.77C357.08 619.471 355.083 620.013 353.051 620.391C349.338 621.267 344.195 622.411 338.504 623.613C332.81 624.816 327.644 625.851 323.893 626.551C321.883 627.027 319.837 627.34 317.776 627.485C319.716 626.784 321.711 626.242 323.739 625.866C327.453 624.989 332.6 623.845 338.299 622.641C343.995 621.437 349.165 620.402 352.916 619.701C354.923 619.225 356.966 618.913 359.024 618.77Z" fill="#FAFAFA"/>
<path d="M375.673 701.94C373.777 702.186 371.865 702.285 369.953 702.235C366.424 702.326 361.553 702.475 356.179 702.783C350.805 703.094 345.948 703.505 342.431 703.82C340.538 704.089 338.628 704.21 336.716 704.183C338.555 703.646 340.443 703.291 342.352 703.122C345.857 702.627 350.725 702.103 356.122 701.791C361.518 701.482 366.413 701.443 369.952 701.532C371.868 701.481 373.784 701.618 375.673 701.94Z" fill="#FAFAFA"/>
<path d="M222.844 623.75C221.466 623.334 220.138 622.768 218.883 622.062C216.144 620.749 213.009 619.247 209.549 617.589C206.077 615.952 202.932 614.469 200.185 613.173C198.845 612.647 197.568 611.974 196.375 611.168C197.788 611.453 199.162 611.91 200.464 612.528C202.936 613.502 206.311 614.95 209.975 616.691C213.636 618.432 216.89 620.135 219.206 621.437C220.508 622.057 221.73 622.834 222.844 623.75Z" fill="#FAFAFA"/>
<path d="M299.586 636.783C298.807 636.58 298.053 636.293 297.335 635.928C295.733 635.229 293.724 634.354 291.335 633.312C286.274 631.097 279.263 628.086 271.442 624.953C263.616 621.822 256.464 619.164 251.273 617.275C248.826 616.381 246.768 615.628 245.126 615.028C244.355 614.797 243.611 614.484 242.907 614.094C243.705 614.198 244.49 614.388 245.247 614.661C246.736 615.085 248.873 615.749 251.502 616.611C256.76 618.332 263.968 620.892 271.811 624.03C279.65 627.17 286.633 630.29 291.626 632.673C294.124 633.863 296.13 634.858 297.5 635.578C298.237 635.904 298.936 636.308 299.586 636.783Z" fill="#FAFAFA"/>
<path d="M305.563 582.545C305.202 582.558 304.841 582.527 304.488 582.453C303.682 582.332 302.674 582.181 301.441 581.996C298.663 581.545 294.877 580.931 290.259 580.183C280.82 578.64 267.775 576.55 253.341 574.422C238.9 572.298 225.806 570.538 216.323 569.294C211.685 568.68 207.883 568.176 205.094 567.806C203.859 567.628 202.851 567.482 202.045 567.365C201.685 567.335 201.33 567.261 200.989 567.144C201.348 567.107 201.71 567.115 202.067 567.166C202.879 567.234 203.895 567.318 205.138 567.422C207.803 567.663 211.654 568.062 216.408 568.596C225.917 569.662 239.035 571.313 253.485 573.439C267.929 575.568 280.966 577.769 290.378 579.49C295.085 580.349 298.888 581.077 301.509 581.615C302.73 581.874 303.727 582.086 304.524 582.255C304.881 582.309 305.23 582.406 305.563 582.545Z" fill="#FAFAFA"/>
<path d="M301.248 525.259C301.207 525.531 280.573 522.67 255.165 518.869C229.749 515.068 209.185 511.767 209.226 511.495C209.266 511.224 229.896 514.085 255.312 517.886C280.72 521.687 301.288 524.988 301.248 525.259Z" fill="#FAFAFA"/>
<path d="M193.161 575.359C192.044 573.362 191.065 571.29 190.231 569.158C188.406 565.046 186.089 559.826 183.527 554.052C180.909 548.3 178.543 543.101 176.679 539.007C175.639 536.968 174.739 534.861 173.987 532.699C174.387 533.172 174.719 533.698 174.973 534.262C175.551 535.297 176.351 536.813 177.312 538.701C179.234 542.476 181.781 547.746 184.433 553.644C187.082 559.54 189.332 564.944 190.879 568.887C191.653 570.859 192.256 572.464 192.646 573.584C192.9 574.149 193.073 574.746 193.161 575.359Z" fill="#FAFAFA"/>
<path d="M152.083 615.599C151.814 615.655 149.185 604.127 146.212 589.855C143.238 575.577 141.045 563.96 141.314 563.905C141.582 563.848 144.21 575.374 147.184 589.651C150.158 603.924 152.351 615.543 152.083 615.599Z" fill="#FAFAFA"/>
<path d="M135.108 552.969C129.233 554.736 123.266 556.186 117.234 557.31C111.272 558.758 105.235 559.882 99.1509 560.679C105.027 558.911 110.994 557.462 117.026 556.338C122.989 554.891 129.025 553.766 135.108 552.969Z" fill="#FAFAFA"/>
<path d="M129.13 500.77C127.605 501.284 126.028 501.63 124.429 501.802C121.503 502.301 117.444 502.888 112.946 503.401C108.445 503.912 104.358 504.251 101.395 504.423C99.798 504.614 98.1845 504.631 96.5835 504.473C98.138 504.065 99.7291 503.814 101.333 503.722C104.632 503.347 108.528 502.903 112.834 502.413C117.138 501.924 121.033 501.481 124.332 501.106C125.916 500.835 127.523 500.723 129.13 500.77Z" fill="#FAFAFA"/>
<path d="M144.63 410.097C145.175 411.175 159.493 484.857 159.493 484.857L125.731 486.435L112.658 423.073L144.63 410.097Z" fill="#455A64"/>
<path d="M159.494 484.857L163.361 483.219L148.75 410.591L144.168 410.285L159.494 484.857Z" fill="#263238"/>
<path d="M131.057 426.202C131.099 426.546 131.039 426.894 130.883 427.204C130.727 427.513 130.484 427.769 130.183 427.94C129.881 428.111 129.537 428.188 129.192 428.162C128.847 428.137 128.517 428.01 128.244 427.796C127.971 427.583 127.768 427.294 127.659 426.965C127.551 426.636 127.542 426.283 127.635 425.949C127.727 425.615 127.916 425.316 128.178 425.09C128.44 424.864 128.763 424.72 129.107 424.678C129.567 424.621 130.031 424.75 130.397 425.036C130.763 425.322 131 425.741 131.057 426.202Z" fill="#263238"/>
<path d="M124.087 477.927L123.587 468.278L138.009 462.33L132.386 448.959C131.738 447.484 130.792 446.161 129.607 445.071C128.422 443.981 127.024 443.15 125.502 442.628C123.979 442.107 122.365 441.907 120.762 442.042C119.158 442.176 117.6 442.642 116.186 443.41C114.259 444.456 112.232 445.558 110.4 446.554C108.36 447.659 106.574 449.181 105.16 451.022C103.746 452.862 102.734 454.98 102.191 457.237C100.636 465.023 99.517 472.891 98.8408 480.802" fill="#924B40"/>
<path d="M85.4806 723.565C85.4806 723.565 26.1445 740.004 23.7639 740.843C20.1894 742.103 20.7897 755.212 26.3522 755.008C28.9837 754.911 71.9286 756.609 77.3549 756.269C82.7812 755.929 99.1518 749.472 99.1518 749.472L85.4806 723.565Z" fill="#6E96C2"/>
<path d="M60.7628 746.229C60.0231 744.052 59.1497 741.922 58.1478 739.852C56.8631 737.945 55.462 736.119 53.9526 734.385C56.1581 735.412 57.9433 737.167 59.0086 739.356C60.364 741.378 60.9834 743.805 60.7628 746.229Z" fill="#263238"/>
<path d="M66.9489 743.421C66.6583 743.471 66.0572 740.663 64.4773 737.561C62.9278 734.442 61.0323 732.286 61.2461 732.083C63.0849 733.316 64.5178 735.067 65.3642 737.114C66.5027 739.014 67.0541 741.208 66.9489 743.421Z" fill="#263238"/>
<path d="M72.7521 741.865C72.4568 739.739 71.9927 737.641 71.3643 735.59C70.4363 733.655 69.3557 731.798 68.1328 730.035C70.0137 731.302 71.4637 733.114 72.2891 735.227C73.1145 737.341 73.276 739.657 72.7521 741.865Z" fill="#263238"/>
<path d="M71.6988 734.193C71.1733 732.783 70.9562 731.276 71.0623 729.774C71.0724 728.141 71.2741 726.516 71.6634 724.931C71.8925 723.992 72.1876 723.071 72.5465 722.174C72.7285 721.613 73.0565 721.11 73.4969 720.718C73.7937 720.491 74.1612 720.377 74.5341 720.395C74.907 720.414 75.2614 720.564 75.5346 720.819C75.994 721.263 76.2751 721.86 76.325 722.498C76.3865 723.019 76.4124 723.543 76.4024 724.067C76.3891 725.047 76.2662 726.022 76.0363 726.975C75.6411 728.566 75.0264 730.094 74.21 731.515C73.5531 732.864 72.6489 734.077 71.5444 735.091C71.4088 734.996 72.4029 733.613 73.5876 731.19C74.2815 729.786 74.8038 728.304 75.1435 726.775C75.3333 725.883 75.4291 724.973 75.4295 724.061C75.403 723.148 75.4162 722.007 74.8828 721.569C74.7849 721.46 74.6493 721.392 74.5035 721.38C74.3577 721.368 74.2128 721.412 74.0981 721.503C73.7988 721.789 73.5753 722.146 73.4477 722.541C73.093 723.394 72.7927 724.27 72.5487 725.161C72.1351 726.678 71.8723 728.231 71.764 729.799C71.5903 732.489 71.8607 734.17 71.6988 734.193Z" fill="#263238"/>
<path d="M71.7729 733.589C72.9821 733.084 74.2935 732.872 75.6001 732.971C77.0194 732.969 78.4334 733.142 79.8102 733.487C80.6561 733.671 81.4723 733.972 82.2348 734.382C82.7234 734.626 83.1189 735.023 83.361 735.513C83.6031 736.003 83.6784 736.559 83.5756 737.096C83.4407 737.608 83.1714 738.075 82.7955 738.448C82.4196 738.821 81.9508 739.086 81.4379 739.216C80.5638 739.435 79.6492 739.432 78.7763 739.209C77.3716 738.857 76.0576 738.21 74.9214 737.312C73.8403 736.586 72.9045 735.663 72.1625 734.592C73.2668 735.229 74.3232 735.945 75.3234 736.735C76.4258 737.487 77.6608 738.022 78.9627 738.312C79.6884 738.477 80.4428 738.467 81.1635 738.282C81.5073 738.195 81.8221 738.018 82.0758 737.771C82.3296 737.523 82.5133 737.212 82.6084 736.87C82.666 736.535 82.6106 736.19 82.4511 735.89C82.2915 735.59 82.0368 735.352 81.727 735.212C81.0483 734.841 80.3248 734.559 79.5743 734.372C78.2687 734.004 76.929 733.77 75.5759 733.674C73.2539 733.511 71.7977 733.749 71.7729 733.589Z" fill="#263238"/>
<path d="M51.6452 746.865C51.4098 745.049 51.0185 743.257 50.4755 741.508C49.6424 739.877 48.6704 738.322 47.5703 736.858C48.4778 737.253 49.2894 737.839 49.9495 738.577C50.6096 739.315 51.1027 740.186 51.395 741.133C51.8468 742.014 52.103 742.982 52.1462 743.971C52.1894 744.961 52.0185 745.948 51.6452 746.865Z" fill="#263238"/>
<path d="M93.0477 749.607C92.3218 750.045 91.5528 750.407 90.7528 750.687C88.6006 751.519 86.3944 752.204 84.1495 752.736C76.7129 754.366 69.1062 755.088 61.4961 754.885C52.604 754.787 44.5914 754.382 38.7802 754.149C36.0297 754.003 33.7247 753.881 31.9043 753.784C31.0583 753.781 30.2149 753.691 29.3872 753.515C30.2239 753.389 31.0712 753.35 31.916 753.398C33.7386 753.411 36.0469 753.427 38.8012 753.446C44.8116 753.564 52.7367 753.719 61.5008 753.891C69.0428 754.079 76.5834 753.463 83.9947 752.05C89.667 750.884 92.9791 749.422 93.0477 749.607Z" fill="#263238"/>
<path d="M94.8022 750.961C94.7221 751.098 93.0984 750.148 90.357 748.945C86.8629 747.282 82.9726 746.635 79.129 747.076C75.3524 747.896 71.9454 749.925 69.4236 752.856C68.367 754.1 67.2243 755.268 66.0039 756.352C66.7899 754.903 67.7666 753.567 68.9077 752.379C70.0742 751.005 71.3943 749.769 72.8423 748.696C74.6488 747.351 76.7509 746.459 78.9726 746.095C83.001 745.606 87.0817 746.379 90.6531 748.308C92.1667 748.969 93.5668 749.864 94.8022 750.961Z" fill="#263238"/>
<path d="M148.463 707.167C148.463 707.167 204.612 743.967 206.625 745.49C209.649 747.777 206.181 758.667 200.943 756.781C198.465 755.889 151.35 742.77 146.283 740.796C141.216 738.823 127.578 727.694 127.578 727.694L148.463 707.167Z" fill="#6E96C2"/>
<path d="M165.138 736.274C165.818 733.963 167.118 731.883 168.895 730.259C170.672 728.634 172.86 727.528 175.22 727.06C173.256 728.253 171.367 729.567 169.564 730.993C167.982 732.661 166.503 734.424 165.138 736.274Z" fill="#263238"/>
<path d="M160.096 731.718C160.816 729.646 161.985 727.758 163.519 726.19C165.053 724.623 166.914 723.413 168.969 722.649C169.111 722.908 166.651 724.385 164.228 726.886C161.782 729.362 160.357 731.854 160.096 731.718Z" fill="#263238"/>
<path d="M155.039 728.472C155.209 726.209 156.066 724.052 157.493 722.289C158.921 720.526 160.852 719.241 163.029 718.605C161.329 719.913 159.735 721.354 158.264 722.915C157.043 724.678 155.965 726.537 155.039 728.472Z" fill="#263238"/>
<path d="M158.37 721.482C158.223 721.41 158.99 719.89 159.641 717.276C160.013 715.749 160.234 714.188 160.3 712.618C160.338 711.694 160.318 710.769 160.239 709.848C160.237 709.433 160.132 709.025 159.934 708.661C159.853 708.54 159.728 708.454 159.585 708.421C159.442 708.389 159.293 708.412 159.166 708.485C158.525 708.741 158.192 709.833 157.889 710.694C157.613 711.563 157.428 712.459 157.339 713.366C157.198 714.926 157.246 716.498 157.481 718.046C157.875 720.715 158.402 722.335 158.244 722.384C157.5 721.082 157.006 719.652 156.79 718.167C156.443 716.565 156.321 714.922 156.427 713.286C156.497 712.308 156.676 711.342 156.961 710.404C157.11 709.902 157.294 709.41 157.51 708.933C157.751 708.34 158.2 707.857 158.773 707.573C159.111 707.413 159.494 707.378 159.855 707.474C160.215 707.57 160.531 707.79 160.745 708.096C161.046 708.604 161.206 709.182 161.209 709.772C161.279 710.736 161.28 711.703 161.214 712.667C161.104 714.296 160.803 715.906 160.317 717.465C159.962 718.928 159.298 720.298 158.37 721.482Z" fill="#263238"/>
<path d="M158.482 720.884C158.41 721.029 157.095 720.36 154.833 719.808C153.515 719.489 152.167 719.304 150.812 719.259C150.04 719.208 149.265 719.257 148.506 719.404C148.169 719.443 147.853 719.593 147.61 719.83C147.367 720.068 147.21 720.379 147.163 720.716C147.15 721.071 147.231 721.423 147.397 721.736C147.564 722.049 147.81 722.313 148.111 722.5C148.742 722.896 149.458 723.135 150.199 723.198C151.527 723.318 152.867 723.183 154.145 722.803C155.338 722.353 156.561 721.992 157.807 721.722C156.775 722.516 155.603 723.11 154.353 723.474C152.998 723.984 151.55 724.201 150.105 724.11C149.205 724.057 148.333 723.781 147.566 723.307C147.117 723.027 146.751 722.632 146.506 722.162C146.261 721.693 146.146 721.166 146.173 720.637C146.238 720.094 146.478 719.588 146.858 719.195C147.237 718.801 147.734 718.543 148.274 718.459C149.125 718.3 149.994 718.261 150.856 718.344C152.272 718.433 153.672 718.698 155.023 719.132C156.298 719.435 157.483 720.035 158.482 720.884Z" fill="#263238"/>
<path d="M193.788 754.729C193.724 754.816 192.844 754.159 192.415 752.55C191.966 750.458 192.343 748.273 193.466 746.451C194.022 745.47 194.651 744.532 195.348 743.645C195.887 742.879 196.529 742.191 197.254 741.598C197.764 741.174 198.388 740.912 199.048 740.846C199.518 740.826 199.757 740.942 199.749 740.999C198.993 741.221 198.295 741.609 197.707 742.134C197.099 742.76 196.556 743.447 196.087 744.184C195.458 745.069 194.874 745.985 194.337 746.929C193.331 748.568 192.897 750.496 193.103 752.409C193.307 753.864 193.921 754.632 193.788 754.729Z" fill="#263238"/>
<path d="M173.631 739.652C173.649 737.682 174.348 735.779 175.609 734.267C176.87 732.754 178.616 731.726 180.55 731.357C179.058 732.417 177.66 733.604 176.371 734.904C175.323 736.405 174.407 737.994 173.631 739.652Z" fill="#263238"/>
<path d="M133.353 729.678C134.217 730.18 135.042 730.746 135.821 731.373C138.045 732.921 140.356 734.338 142.743 735.619C146.297 737.493 149.97 739.13 153.739 740.519C157.991 742.106 162.759 743.603 167.803 745.066C177.904 747.977 187.049 750.639 193.647 752.626C196.812 753.598 199.437 754.405 201.449 755.024C202.418 755.278 203.363 755.616 204.273 756.033C203.28 755.906 202.299 755.693 201.343 755.396C199.309 754.856 196.654 754.151 193.454 753.302C186.804 751.487 177.636 748.934 167.524 746.02C162.472 744.554 157.682 743.022 153.415 741.375C149.624 739.934 145.943 738.216 142.404 736.235C140.023 734.888 137.746 733.367 135.59 731.683C134.781 731.089 134.031 730.417 133.353 729.678Z" fill="#263238"/>
<path d="M131.271 730.434C132.78 729.765 134.386 729.337 136.029 729.167C140.016 728.416 144.139 728.92 147.829 730.61C149.835 731.633 151.567 733.122 152.88 734.952C153.934 736.415 154.817 737.993 155.512 739.657C156.238 741.136 156.764 742.706 157.073 744.325C156.239 742.922 155.505 741.461 154.876 739.955C153.362 736.396 150.731 733.427 147.382 731.498C143.854 729.909 139.951 729.343 136.117 729.865C133.14 730.178 131.305 730.589 131.271 730.434Z" fill="#263238"/>
<path d="M280.043 415.613L283.708 489.85C283.855 492.842 283.394 495.832 282.352 498.64C281.31 501.448 279.709 504.015 277.646 506.185C275.583 508.355 273.101 510.082 270.351 511.263C267.6 512.443 264.639 513.052 261.647 513.052C255.972 513.049 250.516 510.861 246.409 506.942C242.302 503.022 239.858 497.672 239.584 491.998C239.314 486.41 239.077 481.75 239.012 481.177C239.012 481.177 220.045 480.333 217.758 461.696C216.653 452.69 215.886 433.954 215.388 416.995C215.135 408.211 218.195 399.654 223.959 393.025C229.723 386.397 237.769 382.184 246.495 381.223L248.294 381.025C267.816 380.017 279.577 396.051 280.043 415.613Z" fill="#924B40"/>
<path d="M238.951 480.912C247.577 480.123 255.773 476.782 262.495 471.313C262.495 471.313 258.23 485.379 239.441 485.752L238.951 480.912Z" fill="#703A31"/>
<path d="M221.314 428.646C221.384 429.341 221.722 429.982 222.257 430.431C222.792 430.881 223.481 431.103 224.178 431.051C224.519 431.041 224.855 430.962 225.166 430.819C225.477 430.677 225.756 430.474 225.987 430.221C226.218 429.969 226.397 429.673 226.512 429.351C226.627 429.029 226.676 428.687 226.657 428.345C226.588 427.65 226.25 427.009 225.715 426.56C225.181 426.11 224.493 425.887 223.796 425.938C223.454 425.948 223.118 426.027 222.807 426.17C222.496 426.312 222.216 426.516 221.985 426.768C221.754 427.02 221.575 427.316 221.46 427.639C221.345 427.961 221.295 428.304 221.314 428.646Z" fill="#263238"/>
<path d="M220.403 425.713C220.771 426.024 222.623 424.307 225.49 423.998C228.348 423.649 230.613 424.892 230.885 424.507C231.021 424.334 230.615 423.744 229.627 423.178C228.292 422.454 226.767 422.162 225.26 422.341C223.769 422.5 222.368 423.13 221.259 424.14C220.452 424.914 220.223 425.575 220.403 425.713Z" fill="#263238"/>
<path d="M249.447 426.221C249.517 426.916 249.855 427.557 250.39 428.006C250.925 428.456 251.614 428.678 252.31 428.626C252.652 428.616 252.988 428.537 253.299 428.395C253.61 428.252 253.889 428.049 254.12 427.797C254.351 427.544 254.53 427.249 254.645 426.926C254.76 426.604 254.809 426.262 254.79 425.92C254.72 425.225 254.382 424.585 253.848 424.135C253.313 423.685 252.625 423.462 251.929 423.513C251.587 423.523 251.25 423.602 250.939 423.745C250.628 423.887 250.349 424.091 250.117 424.343C249.886 424.596 249.708 424.892 249.593 425.214C249.477 425.537 249.428 425.879 249.447 426.221Z" fill="#263238"/>
<path d="M248.624 423.139C248.993 423.45 250.848 421.733 253.712 421.425C256.57 421.075 258.835 422.318 259.108 421.933C259.243 421.76 258.841 421.17 257.848 420.604C256.514 419.881 254.989 419.588 253.482 419.767C251.991 419.926 250.59 420.556 249.48 421.566C248.676 422.34 248.446 423.001 248.624 423.139Z" fill="#263238"/>
<path d="M240.57 445.555C239.008 445.249 237.413 445.139 235.824 445.229C235.084 445.234 234.375 445.165 234.197 444.679C234.052 443.929 234.139 443.153 234.446 442.454C234.939 440.606 235.455 438.667 235.995 436.639C238.125 428.367 239.581 421.599 239.247 421.515C238.914 421.433 236.916 428.07 234.787 436.341C234.28 438.379 233.795 440.325 233.333 442.18C232.97 443.114 232.948 444.147 233.27 445.096C233.404 445.343 233.593 445.555 233.822 445.718C234.051 445.88 234.314 445.988 234.591 446.034C235.008 446.099 235.432 446.111 235.852 446.07C237.44 446.099 239.025 445.926 240.57 445.555Z" fill="#263238"/>
<path d="M249.22 446.609C248.751 446.633 249.089 449.747 246.67 452.25C244.257 454.761 240.904 454.777 240.927 455.215C240.905 455.415 241.732 455.738 243.136 455.622C244.96 455.446 246.665 454.632 247.949 453.323C249.181 452.065 249.876 450.377 249.888 448.615C249.863 447.3 249.431 446.567 249.22 446.609Z" fill="#263238"/>
<path d="M246.646 411.981C247.014 412.729 249.834 412.044 253.24 412.078C256.647 412.044 259.466 412.73 259.835 411.982C259.997 411.625 259.444 410.943 258.265 410.309C256.7 409.546 254.982 409.149 253.241 409.148C251.5 409.148 249.782 409.545 248.217 410.309C247.037 410.943 246.484 411.624 246.646 411.981Z" fill="#263238"/>
<path d="M220.542 417.297C221.117 417.892 223.016 416.998 225.387 416.704C227.746 416.327 229.818 416.658 230.205 415.926C230.371 415.573 229.983 414.955 229.037 414.435C227.776 413.827 226.362 413.607 224.976 413.803C223.59 414 222.293 414.604 221.251 415.54C220.486 416.302 220.284 417.003 220.542 417.297Z" fill="#263238"/>
<path d="M280.043 429.601C280.346 429.428 292.435 424.394 293.434 437.198C294.433 450.002 281.385 448.364 281.334 447.999C281.283 447.633 280.043 429.601 280.043 429.601Z" fill="#924B40"/>
<path d="M284.863 442.842C284.916 442.797 285.098 442.981 285.488 443.125C286.036 443.31 286.634 443.275 287.157 443.029C287.941 442.439 288.556 441.652 288.936 440.747C289.316 439.841 289.449 438.851 289.321 437.878C289.268 436.777 288.97 435.703 288.449 434.733C288.298 434.342 288.054 433.994 287.739 433.719C287.423 433.443 287.046 433.249 286.639 433.152C286.378 433.104 286.108 433.149 285.876 433.28C285.645 433.41 285.466 433.617 285.372 433.866C285.228 434.237 285.329 434.486 285.263 434.514C285.23 434.548 284.972 434.321 285.034 433.784C285.08 433.461 285.236 433.164 285.474 432.942C285.806 432.648 286.239 432.497 286.681 432.52C287.215 432.583 287.723 432.782 288.157 433.098C288.592 433.413 288.938 433.835 289.164 434.323C289.795 435.389 290.156 436.594 290.215 437.832C290.366 438.966 290.18 440.121 289.678 441.15C289.177 442.179 288.382 443.036 287.395 443.615C287.06 443.742 286.7 443.791 286.343 443.76C285.985 443.729 285.64 443.618 285.331 443.435C284.91 443.15 284.821 442.869 284.863 442.842Z" fill="#7B3A30"/>
<path d="M287.087 428.385C285.866 428.438 284.683 428.821 283.663 429.495C282.643 430.169 281.826 431.107 281.298 432.21C280.669 434.124 280.715 436.208 280.089 438.123C279.464 440.037 277.777 441.892 275.78 441.646C275.097 441.511 274.462 441.198 273.939 440.738C273.417 440.279 273.024 439.688 272.803 439.028C272.377 437.702 272.211 436.306 272.312 434.917C272.406 428.875 273.007 422.829 272.585 416.801C272.403 410.72 270.429 404.829 266.911 399.868C263.199 395.103 257.003 391.982 251.076 393.124C247.15 393.881 243.745 396.35 239.87 397.336C237.561 397.904 235.153 397.939 232.829 397.438C230.505 396.936 228.326 395.912 226.456 394.442C225.981 394.062 223.846 392.969 223.846 392.969C223.747 391.546 224.062 390.124 224.753 388.876C231.764 380.786 245.611 377.215 256.21 378.674C261.597 379.386 266.765 381.263 271.353 384.176C275.942 387.088 279.843 390.966 282.783 395.54C288.286 404.724 288.453 418.325 287.087 428.385Z" fill="#263238"/>
<path d="M78.7358 722.879C78.7358 722.879 216.432 632.468 222.07 630.587C227.708 628.706 241.334 619.77 254.96 623.532C268.586 627.295 280.802 639.523 286.91 657.396C293.018 675.268 293.488 715.246 293.488 715.246C293.488 715.246 282.682 746.758 261.538 753.342C259.729 753.9 257.891 754.362 256.033 754.726C230.225 759.852 203.98 747.972 189.533 725.959L186.46 721.277C186.46 721.277 96.3839 754.403 94.9743 753.932L78.7358 722.879Z" fill="#263238"/>
<path d="M31.7791 617.419C31.7791 617.419 14.935 623.439 14.8644 642.346C14.7291 678.561 87.9642 718.48 87.9642 718.48L185.422 653.841V647.049C185.422 647.049 59.9704 601.898 31.7791 617.419Z" fill="#263238"/>
<path d="M249.089 697.993C249.089 697.993 248.839 698.121 248.333 698.327C247.789 698.543 247.042 698.841 246.08 699.223C244.048 700.006 241.117 701.136 237.35 702.587C229.692 705.475 218.643 709.642 204.908 714.821C191.126 719.968 174.62 726.086 156.1 732.833C137.577 739.572 117.052 746.971 95.1313 754.4L94.7333 754.535L94.5377 754.161C91.0963 747.582 87.4648 740.641 83.7799 733.597C81.9016 730.004 80.0374 726.438 78.2969 723.109L78.0854 722.705L78.467 722.462C119.814 696.188 156.806 672.683 183.502 655.719C196.831 647.303 207.588 640.511 215.052 635.798C218.748 633.489 221.627 631.691 223.621 630.445C224.577 629.86 225.32 629.405 225.858 629.076C226.364 628.772 226.636 628.638 226.636 628.638C226.636 628.638 226.399 628.828 225.91 629.159C225.384 629.507 224.658 629.989 223.723 630.608C221.752 631.889 218.905 633.739 215.25 636.114C207.826 640.888 197.125 647.768 183.866 656.295C157.214 673.324 120.284 696.92 79.005 723.295L79.1749 722.649C80.9159 725.978 82.7808 729.543 84.6597 733.136C88.3423 740.181 91.9714 747.124 95.4106 753.704L94.8178 753.465C116.727 746.056 137.263 738.693 155.801 732.008C174.31 725.265 190.845 719.241 204.679 714.202C218.458 709.142 229.542 705.072 237.224 702.251C241.017 700.869 243.969 699.795 246.015 699.049C246.99 698.704 247.749 698.435 248.3 698.239C248.817 698.062 249.089 697.993 249.089 697.993Z" fill="#455A64"/>
<path d="M136.054 686.488C135.161 685.987 134.312 685.41 133.516 684.765C131.918 683.606 129.64 681.886 126.85 679.727C121.27 675.41 113.678 669.291 105.511 662.274C97.3446 655.252 90.1531 648.665 85.046 643.796C82.4917 641.362 80.4487 639.368 79.0631 637.963C78.3056 637.273 77.6079 636.52 76.9775 635.712C77.8156 636.301 78.6023 636.96 79.3291 637.682C80.9212 639.121 83.007 641.006 85.5235 643.281C90.7479 648.013 98.0029 654.507 106.158 661.52C114.314 668.527 121.824 674.723 127.287 679.177C129.914 681.323 132.091 683.101 133.753 684.459C134.576 685.069 135.346 685.748 136.054 686.488Z" fill="#455A64"/>
<path d="M59.2915 630.954C62.4442 630.455 65.6714 630.748 68.6828 631.808C71.7865 632.555 74.6559 634.063 77.0328 636.196C76.8711 636.454 73.3181 634.188 68.4016 632.761C63.5006 631.288 59.2871 631.259 59.2915 630.954Z" fill="#455A64"/>
<path d="M67.6865 625.247C70.0223 626.051 72.0445 627.574 73.4643 629.597C75.1417 631.412 76.203 633.712 76.4966 636.167C76.2129 636.266 75.1477 633.227 72.6918 630.222C70.2744 627.187 67.5305 625.504 67.6865 625.247Z" fill="#455A64"/>
<path d="M26.4201 739.916C26.3682 739.802 27.5827 739.567 28.9322 740.679C30.516 742.169 31.5151 744.178 31.7491 746.341C32.0607 748.465 31.7521 750.633 30.8605 752.585C30.1706 754.067 29.4122 754.762 29.3271 754.692C29.1935 754.6 29.727 753.777 30.2089 752.323C30.8488 750.446 31.0396 748.445 30.7659 746.481C30.5439 744.529 29.7409 742.689 28.461 741.2C27.4271 740.116 26.3995 740.074 26.4201 739.916Z" fill="#263238"/>
<path d="M835.363 635.852H702.335V654.149H835.363V635.852Z" fill="#263238"/>
<path d="M835.589 654.376H702.108V635.623H835.589V654.376ZM702.563 653.92H835.134V636.078H702.563V653.92Z" fill="#263238"/>
<path d="M714.67 648.058L733.818 742.617H804.667L823.175 654.149L714.67 648.058Z" fill="#263238"/>
<path d="M714.67 733.672L724.882 747.728H810.998L823.175 733.672H714.67Z" fill="#455A64"/>
<path d="M763.854 650.82C763.592 650.821 763.256 607.014 763.104 552.987C762.952 498.942 763.042 455.143 763.303 455.143C763.565 455.142 763.9 498.939 764.052 552.985C764.204 607.011 764.115 650.82 763.854 650.82Z" fill="#263238"/>
<path d="M793.486 541.193C793.407 541.546 793.288 541.888 793.129 542.212C792.818 542.956 792.425 543.894 791.942 545.048C791.676 545.672 791.387 546.352 791.074 547.089L790.188 549.576C789.866 550.471 789.525 551.422 789.163 552.428C788.807 553.44 788.528 554.542 788.179 555.681C786.597 561.031 785.354 566.477 784.459 571.984C783.421 578.74 782.734 585.545 782.399 592.372C781.907 604.796 782.259 617.239 783.45 629.615C783.878 634.37 784.309 638.212 784.625 640.864C784.761 642.108 784.872 643.121 784.96 643.923C785.02 644.279 785.038 644.64 785.014 645C784.892 644.661 784.811 644.308 784.771 643.951C784.637 643.154 784.468 642.149 784.259 640.914C783.831 638.274 783.297 634.439 782.783 629.682C781.39 617.283 780.945 604.795 781.452 592.328C781.788 585.464 782.504 578.625 783.597 571.84C784.538 566.305 785.855 560.84 787.538 555.483C787.91 554.344 788.213 553.243 788.593 552.232C788.98 551.23 789.347 550.282 789.693 549.388C790.036 548.508 790.357 547.685 790.656 546.917C790.984 546.172 791.319 545.505 791.604 544.899C792.155 543.772 792.603 542.855 792.957 542.129C793.096 541.797 793.274 541.483 793.486 541.193Z" fill="#263238"/>
<path d="M790.085 505.764C789.985 506.256 789.843 506.739 789.662 507.208C789.317 508.221 788.856 509.579 788.277 511.281C787.968 512.172 787.629 513.15 787.26 514.216C786.929 515.309 786.572 516.489 786.19 517.754C785.412 520.289 784.509 523.169 783.708 526.411C783.282 528.026 782.838 529.714 782.373 531.475C781.973 533.253 781.558 535.1 781.127 537.014C780.197 540.827 779.527 544.969 778.669 549.296C777.204 557.996 775.912 567.615 775.021 577.761C774.181 587.914 773.815 597.616 773.686 606.443C773.66 615.27 773.771 623.223 774.134 629.892C774.251 633.229 774.465 636.242 774.637 638.89C774.789 641.539 774.956 643.818 775.125 645.679C775.261 647.473 775.369 648.903 775.45 649.969C775.509 650.468 775.526 650.971 775.5 651.473C775.378 650.986 775.298 650.49 775.261 649.989C775.135 648.925 774.967 647.5 774.757 645.713C774.532 643.856 774.311 641.579 774.108 638.93C773.886 636.283 773.625 633.268 773.464 629.927C773.016 623.252 772.835 615.284 772.813 606.437C772.894 597.59 773.235 587.861 774.077 577.68C774.97 567.507 776.292 557.861 777.81 549.143C778.693 544.807 779.394 540.658 780.36 536.841C780.81 534.927 781.245 533.079 781.664 531.298C782.149 529.539 782.615 527.851 783.062 526.233C783.907 522.995 784.857 520.119 785.685 517.593L786.832 514.072C787.23 513.014 787.596 512.042 787.93 511.157C788.579 509.477 789.097 508.138 789.484 507.14C789.645 506.665 789.846 506.205 790.085 505.764Z" fill="#263238"/>
<path d="M755.439 658.569C755.393 658.402 755.368 658.23 755.364 658.057C755.332 657.664 755.29 657.167 755.239 656.55C755.144 655.154 755.014 653.213 754.848 650.749C754.528 645.638 754.074 638.366 753.514 629.41C752.359 611.397 750.689 586.51 747.661 559.143C746.114 545.459 744.319 532.464 742.454 520.682C741.462 514.8 740.563 509.203 739.542 503.998C738.606 498.776 737.598 493.94 736.67 489.525C735.796 485.099 734.821 481.136 734.037 477.638C733.267 474.138 732.521 471.142 731.898 468.697C731.311 466.299 730.849 464.411 730.516 463.052C730.379 462.448 730.268 461.963 730.18 461.578C730.132 461.411 730.104 461.24 730.097 461.066C730.176 461.22 730.235 461.383 730.274 461.552C730.385 461.931 730.526 462.408 730.701 463.003C731.075 464.351 731.595 466.225 732.255 468.605C732.933 471.038 733.732 474.023 734.552 477.515C735.386 481.004 736.408 484.961 737.325 489.383C738.296 493.794 739.344 498.629 740.314 503.851C741.37 509.057 742.299 514.656 743.316 520.541C745.231 532.331 747.054 545.339 748.603 559.037C751.634 586.434 753.199 611.343 754.183 629.371C754.672 638.386 755.012 645.684 755.216 650.729C755.307 653.198 755.378 655.142 755.43 656.54C755.442 657.16 755.453 657.658 755.461 658.052C755.475 658.225 755.468 658.398 755.439 658.569Z" fill="#263238"/>
<path d="M762.768 476.202C762.19 469.996 755.925 465.314 749.698 465.25C743.472 465.186 737.668 468.923 733.86 473.855C730.274 478.971 727.687 484.72 726.234 490.798C722.041 505.419 719.749 520.781 721.542 535.886C723.334 550.991 729.457 565.864 740.286 576.536C742.046 578.271 744.327 580.006 746.743 579.49C748.043 579.097 749.217 578.371 750.15 577.384C760.752 567.668 769.157 555.796 774.799 542.562C780.441 529.329 783.191 515.04 782.863 500.655C782.695 494.912 781.941 488.934 778.764 484.148C775.586 479.362 768.178 474.28 762.768 476.202Z" fill="#6E96C2"/>
<path d="M716.274 426.493C713.351 431.792 710.427 437.091 707.504 442.39C707.3 442.761 707.029 443.176 706.608 443.211C706.147 443.249 705.803 442.813 705.55 442.426C697.822 430.553 690.094 418.68 682.366 406.807L687.708 403.777L716.274 426.493Z" fill="#6E96C2"/>
<g opacity="0.2">
<path d="M716.274 426.493C713.351 431.792 710.427 437.091 707.504 442.39C707.3 442.761 707.029 443.176 706.608 443.211C706.147 443.249 705.803 442.813 705.55 442.426C697.822 430.553 690.094 418.68 682.366 406.807L687.708 403.777L716.274 426.493Z" fill="black"/>
</g>
<path d="M763.303 455.141C736.94 439.569 710.577 423.997 684.214 408.424C683.347 408.047 682.658 407.351 682.289 406.48C681.973 405.309 682.852 404.179 683.696 403.308C689.133 397.659 695.723 393.25 703.017 390.381C710.311 387.513 718.137 386.252 725.962 386.686C733.781 387.248 741.347 389.708 748.004 393.853C754.662 397.998 760.211 403.702 764.173 410.475C771.805 424.127 772.057 442.181 763.303 455.141Z" fill="#6E96C2"/>
<path d="M695.613 393.513C695.952 393.428 696.3 393.384 696.649 393.383C697.331 393.349 698.338 393.226 699.638 393.24C703.315 393.19 706.988 393.482 710.612 394.112C722.673 396.15 733.9 401.598 742.97 409.813C752.04 418.029 758.574 428.669 761.802 440.479C762.789 444.025 763.446 447.655 763.763 451.322C763.906 452.615 763.884 453.63 763.918 454.312C763.952 454.661 763.943 455.011 763.893 455.357C763.809 455.362 763.71 453.928 763.396 451.361C762.94 447.74 762.192 444.162 761.158 440.663C757.842 429.038 751.337 418.576 742.382 410.465C733.426 402.353 722.379 396.917 710.493 394.772C706.911 394.091 703.28 393.702 699.635 393.609C697.052 393.552 695.617 393.597 695.613 393.513Z" fill="#263238"/>
<path d="M752.598 422.896C751.34 423.655 749.998 424.265 748.6 424.716C746.08 425.71 742.559 426.98 738.621 428.233C734.68 429.485 731.072 430.481 728.441 431.125C727.039 431.565 725.592 431.841 724.127 431.948C725.451 431.319 726.836 430.826 728.261 430.479C731.176 429.567 734.576 428.504 738.334 427.329L748.375 424.084C749.738 423.545 751.154 423.147 752.598 422.896Z" fill="#263238"/>
<path d="M740.145 389.409C741.242 395.247 741.393 401.223 740.592 407.109C740.203 404.178 740.05 401.22 740.132 398.265C739.9 395.317 739.905 392.356 740.145 389.409Z" fill="#263238"/>
<path d="M683.524 407.539C685.378 406.701 687.3 406.024 689.269 405.516C692.862 404.407 697.866 403.003 703.444 401.656C709.025 400.312 714.119 399.28 717.822 398.63C719.807 398.185 721.826 397.911 723.858 397.812C721.928 398.445 719.954 398.937 717.954 399.287C714.29 400.105 709.233 401.238 703.666 402.579C698.103 403.922 693.085 405.219 689.452 406.161C687.511 406.762 685.53 407.222 683.524 407.539Z" fill="#263238"/>
<path d="M726.836 461.512C720.034 456.348 712.841 455.332 704.311 455.67C695.77 456.24 687.41 458.4 679.659 462.038C666.323 467.885 653.787 476.503 645.819 488.7C637.85 500.897 635.078 517.045 641.044 530.34C641.508 531.729 642.47 532.898 643.745 533.62C645.226 534.043 646.809 533.921 648.208 533.278C663.376 528.325 678.652 523.325 692.598 515.569C706.545 507.812 719.24 497.03 726.723 482.925C728.65 479.599 729.872 475.911 730.315 472.092C730.523 470.182 730.32 468.25 729.72 466.425C729.119 464.6 728.136 462.925 726.836 461.512Z" fill="#6E96C2"/>
<path d="M726.971 459.91C726.624 460.097 726.258 460.245 725.879 460.354C725.059 460.637 724.005 460.999 722.701 461.448C721.999 461.683 721.232 461.939 720.4 462.216C719.565 462.517 718.676 462.891 717.711 463.265C715.792 464.042 713.564 464.818 711.218 465.958C710.03 466.499 708.791 467.064 707.499 467.653C706.209 468.25 704.922 468.983 703.558 469.678C700.808 471.03 698.027 472.757 695.065 474.507C682.348 482.395 671.038 492.355 661.603 503.976C659.491 506.695 657.426 509.237 655.735 511.794C654.873 513.059 653.983 514.244 653.228 515.449C652.48 516.656 651.762 517.815 651.074 518.926C649.646 521.11 648.593 523.223 647.578 525.029C647.085 525.94 646.601 526.775 646.197 527.565C645.816 528.356 645.465 529.084 645.143 529.752C644.532 530.989 644.039 531.989 643.654 532.767C643.498 533.129 643.304 533.474 643.075 533.795C643.17 533.413 643.305 533.043 643.479 532.691C643.822 531.892 644.264 530.865 644.809 529.595C645.109 528.914 645.437 528.171 645.792 527.364C646.173 526.56 646.636 525.709 647.109 524.783C648.083 522.946 649.1 520.799 650.498 518.582C651.173 517.455 651.878 516.279 652.612 515.053C653.355 513.832 654.235 512.629 655.089 511.347C656.762 508.754 658.816 506.178 660.925 503.426C670.349 491.659 681.746 481.622 694.606 473.764C697.601 472.021 700.415 470.31 703.197 468.979C704.576 468.295 705.88 467.574 707.185 466.992C708.492 466.42 709.747 465.87 710.95 465.343C713.326 464.237 715.582 463.5 717.527 462.767C718.505 462.416 719.406 462.065 720.252 461.789C721.097 461.539 721.875 461.308 722.588 461.097C723.916 460.717 724.99 460.41 725.826 460.171C726.197 460.043 726.581 459.955 726.971 459.91Z" fill="#263238"/>
<path d="M673.83 488.713C668.415 490.791 662.892 492.573 657.284 494.049C651.764 495.829 646.151 497.307 640.471 498.476C645.886 496.398 651.409 494.616 657.018 493.139C662.537 491.359 668.15 489.882 673.83 488.713Z" fill="#263238"/>
<path d="M673.149 525.263C672.86 523.559 672.738 521.83 672.785 520.102C672.698 516.912 672.684 512.502 672.82 507.633C672.956 502.764 673.216 498.36 673.481 495.179C673.531 493.452 673.749 491.733 674.133 490.048C674.289 491.767 674.295 493.497 674.15 495.217C674.043 498.713 673.912 502.962 673.767 507.66C673.649 512.357 673.543 516.606 673.456 520.102C673.504 521.828 673.402 523.555 673.149 525.263Z" fill="#263238"/>
<path d="M704.427 509.313C704.166 509.331 703.334 500.369 702.569 489.298C701.804 478.223 701.396 469.234 701.657 469.216C701.918 469.198 702.75 478.158 703.515 489.232C704.279 500.303 704.688 509.294 704.427 509.313Z" fill="#263238"/>
<path d="M665.493 468.346C667.252 468.133 669.027 468.08 670.797 468.186C674.067 468.208 678.581 468.305 683.564 468.469C688.549 468.634 693.06 468.837 696.325 469.031C698.097 469.042 699.865 469.213 701.606 469.541C699.849 469.755 698.077 469.808 696.311 469.702C693.04 469.679 688.522 469.583 683.533 469.418C678.545 469.252 674.031 469.05 670.767 468.856C668.997 468.846 667.232 468.675 665.493 468.346Z" fill="#263238"/>
<path d="M743.678 580.799C743.598 580.444 743.56 580.081 743.565 579.717C743.528 578.903 743.482 577.873 743.425 576.607C743.306 573.906 743.279 569.991 743.381 565.156C743.467 560.32 743.788 554.566 744.356 548.195C744.973 541.828 745.864 534.847 747.14 527.575C748.451 520.306 750.023 513.445 751.641 507.257C753.305 501.08 754.989 495.568 756.577 491C758.149 486.428 759.525 482.763 760.568 480.269C761.058 479.101 761.457 478.151 761.772 477.399C761.893 477.056 762.054 476.729 762.251 476.423C762.191 476.782 762.09 477.133 761.95 477.469C761.678 478.237 761.335 479.208 760.913 480.401C759.977 482.932 758.7 486.624 757.212 491.212C755.71 495.795 754.098 501.309 752.486 507.478C750.92 513.658 749.38 520.499 748.074 527.741C746.802 534.987 745.887 541.939 745.226 548.279C744.611 554.625 744.222 560.356 744.05 565.177C743.864 569.996 743.788 573.903 743.794 576.602C743.779 577.869 743.766 578.898 743.756 579.712C743.772 580.077 743.746 580.441 743.678 580.799Z" fill="#263238"/>
<path d="M747.849 526.783C746.926 528.049 745.868 529.211 744.694 530.249C742.648 532.291 739.743 535.034 736.428 537.944C733.111 540.853 730.015 543.378 727.725 545.141C726.543 546.17 725.254 547.067 723.879 547.818C724.915 546.645 726.06 545.575 727.3 544.622C729.731 542.509 732.615 540.002 735.804 537.23C738.965 534.43 741.826 531.895 744.236 529.76C745.342 528.654 746.552 527.657 747.849 526.783Z" fill="#263238"/>
<path d="M772.884 546.969C771.645 545.505 770.522 543.947 769.523 542.31C767.361 539.152 764.677 535.23 761.708 530.893C758.676 526.598 755.936 522.715 753.729 519.588C752.543 518.082 751.474 516.486 750.534 514.814C751.906 516.157 753.155 517.62 754.266 519.186C756.459 521.975 759.394 525.904 762.486 530.351C765.575 534.798 768.236 538.918 770.086 541.946C771.167 543.533 772.103 545.214 772.884 546.969Z" fill="#263238"/>
<path d="M759.769 483.486C759.911 483.707 751.595 489.311 741.198 496.002C730.797 502.695 722.254 507.94 722.112 507.72C721.971 507.5 730.285 501.897 740.685 495.204C751.082 488.513 759.628 483.266 759.769 483.486Z" fill="#263238"/>
<path d="M783.217 508.819C778.814 505.176 774.615 501.292 770.64 497.185C766.444 493.303 762.466 489.193 758.723 484.871C767.323 492.395 775.5 500.39 783.217 508.819Z" fill="#263238"/>
<path d="M789.114 508.311L796.253 507.72C801.32 507.303 806.237 505.796 810.669 503.302C812.832 502.03 815.077 500.902 817.388 499.924C826.214 496.378 836.061 497.012 845.559 496.535C861.113 495.744 876.351 491.844 890.375 485.064C891.193 484.689 891.875 484.069 892.327 483.29C893.794 480.616 891.07 478.235 888.726 476.79C876.7 469.372 864.458 461.859 850.819 458.176C837.18 454.494 821.698 455.117 810.061 463.133C796.4 472.544 791.422 491.873 789.114 508.311Z" fill="#6E96C2"/>
<path d="M892.488 482.412C892.068 482.263 891.663 482.074 891.278 481.848C890.422 481.399 889.297 480.81 887.894 480.074C884.96 478.53 880.735 476.249 875.397 473.687C869.182 470.63 862.709 468.133 856.052 466.224C847.912 463.889 839.389 463.198 830.979 464.191C822.557 465.132 814.603 468.551 808.122 474.016C803.06 478.726 799.01 484.42 796.22 490.749C794.278 495.003 792.55 499.352 791.042 503.779C790.515 505.273 790.093 506.471 789.771 507.383C789.644 507.811 789.477 508.226 789.272 508.622C789.337 508.18 789.443 507.746 789.589 507.324C789.868 506.398 790.235 505.181 790.692 503.662C792.07 499.171 793.713 494.765 795.612 490.468C798.36 483.998 802.424 478.173 807.544 473.361C814.131 467.735 822.251 464.214 830.856 463.25C839.389 462.24 848.039 462.965 856.285 465.382C862.978 467.341 869.475 469.92 875.69 473.084C881.011 475.733 885.19 478.106 888.072 479.751C889.44 480.551 890.536 481.193 891.371 481.681C891.766 481.889 892.14 482.134 892.488 482.412Z" fill="#263238"/>
<path d="M875.345 491.631C875.198 491.849 865.862 485.803 854.493 478.13C843.121 470.454 834.023 464.057 834.17 463.84C834.316 463.623 843.651 469.667 855.023 477.343C866.391 485.016 875.491 491.414 875.345 491.631Z" fill="#263238"/>
<path d="M866.376 462.946C861.621 464.44 856.603 464.903 851.656 464.302C856.541 463.638 861.452 463.185 866.376 462.946Z" fill="#263238"/>
<path d="M824.515 455.438C822.756 459.667 820.42 463.631 817.573 467.217C819.331 462.988 821.668 459.024 824.515 455.438Z" fill="#263238"/>
<path d="M832.88 497.137C831.302 496.482 829.796 495.665 828.387 494.699C825.69 493.061 822.045 490.659 818.15 487.829C814.256 484.997 810.821 482.321 808.354 480.361C806.962 479.374 805.664 478.26 804.477 477.034C805.989 477.826 807.422 478.761 808.757 479.825C811.557 481.862 814.952 484.331 818.706 487.061C822.588 489.882 826.154 492.358 828.75 494.136C830.208 495.019 831.59 496.023 832.88 497.137Z" fill="#263238"/>
<path d="M799.625 538.67C792.816 536.87 784.7 543.5 783.296 550.408C781.892 557.317 784.481 564.382 787.511 570.745C793.994 585.009 803.621 597.617 815.668 607.624C827.861 617.349 843.132 623.568 858.721 623.489C855.843 610.106 859.484 596.123 857.879 582.528C856.465 570.548 851.031 559.403 842.468 550.916C833.904 542.429 822.716 537.101 810.735 535.805C806.389 535.335 801.359 534.653 799.625 538.67Z" fill="#6E96C2"/>
<path d="M858.722 623.489C858.382 623.377 858.057 623.226 857.753 623.037C856.856 622.542 856.003 621.969 855.206 621.326C852.35 618.84 850.057 615.771 848.483 612.325C847.397 610.215 846.184 607.924 844.998 605.388C843.848 602.843 842.623 600.131 841.335 597.282C840.016 594.303 838.512 591.41 836.834 588.618C834.988 585.652 832.917 582.832 830.639 580.185C825.977 574.703 820.975 569.962 816.639 565.431C812.717 561.475 809.146 557.186 805.965 552.612C803.835 549.509 802.084 546.161 800.75 542.64C800.398 541.681 800.094 540.706 799.84 539.716C799.727 539.377 799.655 539.026 799.625 538.67C799.713 538.645 800.099 540.062 801.093 542.506C802.545 545.935 804.364 549.196 806.518 552.232C809.752 556.715 813.347 560.926 817.266 564.823C821.62 569.304 826.651 574.034 831.362 579.571C833.672 582.256 835.766 585.119 837.626 588.133C839.314 590.963 840.818 593.898 842.131 596.921C843.389 599.781 844.587 602.503 845.712 605.058C846.854 607.583 848.035 609.897 849.079 612.018C850.569 615.426 852.734 618.496 855.443 621.043C857.432 622.761 858.778 623.397 858.722 623.489Z" fill="#263238"/>
<path d="M823.512 612.366C823.546 610.818 823.755 609.279 824.137 607.778C824.67 604.971 825.544 601.119 826.724 596.92C827.907 592.721 829.17 588.978 830.179 586.305C830.636 584.826 831.26 583.404 832.038 582.065C831.77 583.586 831.359 585.078 830.813 586.523C829.97 589.242 828.814 592.999 827.636 597.178C826.462 601.356 825.489 605.163 824.791 607.924C824.504 609.441 824.075 610.929 823.512 612.366Z" fill="#263238"/>
<path d="M857.431 579.515C855.803 579.289 854.198 578.919 852.634 578.412C849.701 577.644 845.649 576.595 841.142 575.577C836.633 574.562 832.523 573.771 829.544 573.206C827.914 572.994 826.306 572.639 824.738 572.145C826.385 572.103 828.032 572.237 829.65 572.544C832.666 572.941 836.817 573.632 841.35 574.652C845.882 575.675 849.927 576.832 852.822 577.767C854.416 578.184 855.961 578.77 857.431 579.515Z" fill="#263238"/>
<path d="M798.245 589.06C798.319 587.27 798.565 585.492 798.981 583.75C799.58 580.497 800.533 576.023 801.806 571.137C803.082 566.249 804.435 561.879 805.501 558.748C805.988 557.025 806.641 555.353 807.451 553.756C807.157 555.519 806.719 557.256 806.141 558.948C805.24 562.123 803.994 566.507 802.723 571.376C801.454 576.245 800.402 580.678 799.637 583.889C799.315 585.648 798.85 587.378 798.245 589.06Z" fill="#263238"/>
<path d="M841.81 550.886C841.783 551.146 833.283 550.457 822.827 549.348C812.368 548.238 803.914 547.127 803.942 546.867C803.97 546.606 812.468 547.294 822.927 548.404C833.383 549.514 841.838 550.625 841.81 550.886Z" fill="#263238"/>
<path d="M835.583 654.071C835.583 654.333 805.702 654.545 768.852 654.545C731.989 654.545 702.115 654.333 702.115 654.071C702.115 653.809 731.989 653.597 768.852 653.597C805.702 653.597 835.583 653.809 835.583 654.071Z" fill="#455A64"/>
<path d="M814.795 692.562C814.795 692.824 794.662 693.037 769.833 693.037C744.996 693.037 724.868 692.824 724.868 692.562C724.868 692.3 744.996 692.088 769.833 692.088C794.662 692.088 814.795 692.3 814.795 692.562Z" fill="#455A64"/>
<path d="M815.58 698.065C815.58 698.327 795.447 698.539 770.618 698.539C745.781 698.539 725.653 698.327 725.653 698.065C725.653 697.803 745.781 697.591 770.618 697.591C795.447 697.591 815.58 697.803 815.58 698.065Z" fill="#455A64"/>
<path d="M815.58 688.025C815.58 688.287 794.755 688.5 769.073 688.5C743.382 688.5 722.562 688.287 722.562 688.025C722.562 687.763 743.382 687.551 769.073 687.551C794.755 687.551 815.58 687.763 815.58 688.025Z" fill="#455A64"/>
<path d="M411.507 541.291H406.205V525.671H411.507C414.147 525.671 416.201 526.39 417.667 527.827C419.149 529.25 419.889 531.134 419.889 533.481C419.889 535.828 419.149 537.72 417.667 539.157C416.201 540.58 414.147 541.291 411.507 541.291ZM415.643 537.419C416.597 536.466 417.073 535.153 417.073 533.481C417.073 531.809 416.597 530.504 415.643 529.565C414.705 528.612 413.297 528.135 411.419 528.135H408.867V538.827H411.419C413.297 538.827 414.705 538.358 415.643 537.419ZM427.654 541.555C425.894 541.555 424.464 540.976 423.364 539.817C422.279 538.658 421.736 537.25 421.736 535.593C421.736 533.936 422.279 532.528 423.364 531.369C424.464 530.196 425.894 529.609 427.654 529.609C429.429 529.609 430.859 530.196 431.944 531.369C433.044 532.528 433.594 533.936 433.594 535.593C433.594 537.25 433.044 538.658 431.944 539.817C430.859 540.976 429.429 541.555 427.654 541.555ZM424.354 535.593C424.354 536.678 424.662 537.558 425.278 538.233C425.909 538.908 426.701 539.245 427.654 539.245C428.622 539.245 429.414 538.908 430.03 538.233C430.661 537.558 430.976 536.678 430.976 535.593C430.976 534.493 430.661 533.606 430.03 532.931C429.414 532.256 428.622 531.919 427.654 531.919C426.701 531.919 425.909 532.256 425.278 532.931C424.662 533.606 424.354 534.493 424.354 535.593ZM446.016 541.291L443.442 533.459H443.42L440.824 541.291H438.338L434.356 529.873H437.062L439.614 538.057L442.232 529.873H444.652L447.248 538.079L449.822 529.873H452.484L448.502 541.291H446.016ZM456.744 529.873V531.391C457.008 530.892 457.441 530.474 458.042 530.137C458.658 529.785 459.399 529.609 460.264 529.609C461.614 529.609 462.655 530.02 463.388 530.841C464.136 531.662 464.51 532.755 464.51 534.119V541.291H461.892V534.449C461.892 533.642 461.702 533.012 461.32 532.557C460.954 532.088 460.389 531.853 459.626 531.853C458.79 531.853 458.13 532.102 457.646 532.601C457.177 533.1 456.942 533.789 456.942 534.669V541.291H454.324V529.873H456.744ZM470.198 541.291H467.58V524.791H470.198V541.291ZM478.529 541.555C476.769 541.555 475.339 540.976 474.239 539.817C473.154 538.658 472.611 537.25 472.611 535.593C472.611 533.936 473.154 532.528 474.239 531.369C475.339 530.196 476.769 529.609 478.529 529.609C480.304 529.609 481.734 530.196 482.819 531.369C483.919 532.528 484.469 533.936 484.469 535.593C484.469 537.25 483.919 538.658 482.819 539.817C481.734 540.976 480.304 541.555 478.529 541.555ZM475.229 535.593C475.229 536.678 475.537 537.558 476.153 538.233C476.784 538.908 477.576 539.245 478.529 539.245C479.497 539.245 480.289 538.908 480.905 538.233C481.536 537.558 481.851 536.678 481.851 535.593C481.851 534.493 481.536 533.606 480.905 532.931C480.289 532.256 479.497 531.919 478.529 531.919C477.576 531.919 476.784 532.256 476.153 532.931C475.537 533.606 475.229 534.493 475.229 535.593ZM493.935 535.923L490.899 536.385C489.476 536.605 488.765 537.148 488.765 538.013C488.765 539.01 489.439 539.509 490.789 539.509C491.801 539.509 492.578 539.238 493.121 538.695C493.663 538.152 493.935 537.47 493.935 536.649V535.923ZM490.261 541.555C488.911 541.555 487.907 541.24 487.247 540.609C486.587 539.978 486.257 539.142 486.257 538.101C486.257 536.106 487.716 534.904 490.635 534.493L493.935 534.031V533.855C493.935 532.462 493.121 531.765 491.493 531.765C490.07 531.765 489.263 532.33 489.073 533.459H486.521C486.638 532.344 487.1 531.428 487.907 530.709C488.728 529.976 489.945 529.609 491.559 529.609C493.187 529.609 494.411 529.983 495.233 530.731C496.069 531.479 496.487 532.528 496.487 533.877V539.135C496.487 540.059 496.597 540.778 496.817 541.291H494.331C494.316 541.291 494.294 541.24 494.265 541.137C494.25 541.02 494.228 540.836 494.199 540.587C494.184 540.338 494.177 540.074 494.177 539.795C493.399 540.968 492.094 541.555 490.261 541.555ZM507.776 531.369V524.791H510.394V541.291H507.974V539.663C507.196 540.924 505.913 541.555 504.124 541.555C502.496 541.555 501.205 540.99 500.252 539.861C499.313 538.717 498.844 537.294 498.844 535.593C498.844 533.892 499.313 532.469 500.252 531.325C501.205 530.181 502.496 529.609 504.124 529.609C505.781 529.609 506.998 530.196 507.776 531.369ZM507.886 535.593C507.886 534.522 507.592 533.642 507.006 532.953C506.434 532.264 505.656 531.919 504.674 531.919C503.706 531.919 502.928 532.264 502.342 532.953C501.755 533.642 501.462 534.522 501.462 535.593C501.462 536.634 501.755 537.507 502.342 538.211C502.928 538.9 503.706 539.245 504.674 539.245C505.656 539.245 506.434 538.9 507.006 538.211C507.592 537.522 507.886 536.649 507.886 535.593ZM514.898 527.959C514.414 527.959 514.018 527.812 513.71 527.519C513.402 527.211 513.248 526.822 513.248 526.353C513.248 525.869 513.402 525.473 513.71 525.165C514.018 524.857 514.414 524.703 514.898 524.703C515.367 524.703 515.756 524.857 516.064 525.165C516.372 525.473 516.526 525.869 516.526 526.353C516.526 526.822 516.372 527.211 516.064 527.519C515.756 527.812 515.367 527.959 514.898 527.959ZM513.578 541.291V529.873H516.196V541.291H513.578ZM521.777 529.873V531.391C522.041 530.892 522.474 530.474 523.075 530.137C523.691 529.785 524.432 529.609 525.297 529.609C526.647 529.609 527.688 530.02 528.421 530.841C529.169 531.662 529.543 532.755 529.543 534.119V541.291H526.925V534.449C526.925 533.642 526.735 533.012 526.353 532.557C525.987 532.088 525.422 531.853 524.659 531.853C523.823 531.853 523.163 532.102 522.679 532.601C522.21 533.1 521.975 533.789 521.975 534.669V541.291H519.357V529.873H521.777ZM540.929 531.501V529.873H543.349V540.807C543.349 542.362 542.865 543.63 541.897 544.613C540.944 545.61 539.609 546.109 537.893 546.109C536.324 546.109 535.092 545.706 534.197 544.899C533.317 544.092 532.804 543.168 532.657 542.127H535.275C535.598 543.286 536.485 543.865 537.937 543.865C538.817 543.865 539.499 543.616 539.983 543.117C540.482 542.633 540.731 541.98 540.731 541.159V539.377C539.969 540.55 538.766 541.137 537.123 541.137C535.539 541.137 534.263 540.587 533.295 539.487C532.342 538.372 531.865 537.001 531.865 535.373C531.865 533.745 532.342 532.381 533.295 531.281C534.263 530.166 535.539 529.609 537.123 529.609C538.869 529.609 540.137 530.24 540.929 531.501ZM540.841 535.373C540.841 534.361 540.548 533.532 539.961 532.887C539.375 532.242 538.605 531.919 537.651 531.919C536.713 531.919 535.95 532.242 535.363 532.887C534.777 533.532 534.483 534.361 534.483 535.373C534.483 536.37 534.777 537.199 535.363 537.859C535.95 538.504 536.713 538.827 537.651 538.827C538.605 538.827 539.375 538.504 539.961 537.859C540.548 537.199 540.841 536.37 540.841 535.373ZM548.848 540.983C548.51 541.306 548.078 541.467 547.55 541.467C547.022 541.467 546.582 541.306 546.23 540.983C545.892 540.646 545.724 540.213 545.724 539.685C545.724 539.172 545.892 538.746 546.23 538.409C546.582 538.057 547.022 537.881 547.55 537.881C548.063 537.881 548.488 538.057 548.826 538.409C549.178 538.746 549.354 539.172 549.354 539.685C549.354 540.213 549.185 540.646 548.848 540.983ZM554.24 540.983C553.903 541.306 553.47 541.467 552.942 541.467C552.414 541.467 551.974 541.306 551.622 540.983C551.285 540.646 551.116 540.213 551.116 539.685C551.116 539.172 551.285 538.746 551.622 538.409C551.974 538.057 552.414 537.881 552.942 537.881C553.456 537.881 553.881 538.057 554.218 538.409C554.57 538.746 554.746 539.172 554.746 539.685C554.746 540.213 554.578 540.646 554.24 540.983ZM559.633 540.983C559.296 541.306 558.863 541.467 558.335 541.467C557.807 541.467 557.367 541.306 557.015 540.983C556.678 540.646 556.509 540.213 556.509 539.685C556.509 539.172 556.678 538.746 557.015 538.409C557.367 538.057 557.807 537.881 558.335 537.881C558.848 537.881 559.274 538.057 559.611 538.409C559.963 538.746 560.139 539.172 560.139 539.685C560.139 540.213 559.97 540.646 559.633 540.983Z" fill="black"/>
<g clip-path="url(#clip1_3001_921)">
<path d="M509.356 293.958H466.98C462.453 293.958 458.196 292.193 454.994 288.988C451.793 285.784 450.03 281.523 450.03 276.991V272.749C450.03 270.406 451.927 268.507 454.267 268.507C456.608 268.507 458.505 270.406 458.505 272.749V276.991C458.505 279.257 459.387 281.387 460.987 282.99C462.588 284.592 464.716 285.475 466.98 285.475H509.356C511.619 285.475 513.747 284.592 515.348 282.99C516.949 281.387 517.831 279.257 517.831 276.991V272.749C517.831 270.406 519.728 268.507 522.068 268.507C524.409 268.507 526.306 270.406 526.306 272.749V276.991C526.306 281.523 524.543 285.783 521.341 288.988C518.139 292.193 513.883 293.958 509.356 293.958ZM488.168 276.991C487.061 276.992 485.998 276.559 485.208 275.784L485.207 275.784L485.199 275.776L485.196 275.773C485.194 275.771 485.192 275.769 485.19 275.767L485.186 275.763C485.184 275.761 485.182 275.759 485.181 275.758L485.172 275.749L468.221 258.781C466.566 257.125 466.566 254.439 468.221 252.782C469.876 251.126 472.559 251.126 474.214 252.782L483.93 262.508V221.847C483.93 219.504 485.827 217.605 488.168 217.605C490.508 217.605 492.406 219.504 492.406 221.847V262.508L502.122 252.782C503.776 251.126 506.46 251.126 508.115 252.782C509.769 254.439 509.769 257.125 508.115 258.781L491.164 275.748L491.155 275.758L491.15 275.762L491.146 275.767C491.144 275.769 491.142 275.771 491.139 275.773L491.137 275.775C491.134 275.778 491.132 275.781 491.129 275.784L491.128 275.784C491.082 275.83 491.035 275.874 490.986 275.917C490.64 276.226 490.246 276.476 489.818 276.657L489.814 276.659C489.813 276.659 489.811 276.66 489.81 276.66C489.29 276.879 488.732 276.992 488.168 276.991Z" fill="white"/>
</g>
</g>
<defs>
<clipPath id="clip0_3001_921">
<rect width="897" height="757" fill="white"/>
</clipPath>
<clipPath id="clip1_3001_921">
<rect width="76.2762" height="76.3528" fill="white" transform="translate(450.03 217.605)"/>
</clipPath>
</defs>
</svg>
