<?xml version="1.0" encoding="UTF-8"?>
<svg id="Layer_2" xmlns="http://www.w3.org/2000/svg" viewBox="0 0 1655 306.31">
  <defs>
    <style>
      .cls-1 {
        fill: #c8d6de;
      }
    </style>
  </defs>
  <g id="Layer_1-2" data-name="Layer_1">
    <g>
      <path class="cls-1" d="M.02,71.28c-.14-9.74.37-20.46,1.43-31.14C2.75,27.09,4.73,14.14,7.54,1.32c.24-1.08.74-1.46,1.87-1.28,15.01,2.33,30.02,4.63,45.04,6.92,10.49,1.6,20.98,3.17,31.48,4.76,13.69,2.08,27.38,4.16,41.07,6.24,15.13,2.3,30.26,4.57,45.39,6.87,14.08,2.14,28.23,3.9,42.21,6.57,12.54,2.4,24.46,7.1,36.19,12.11,23.41,9.99,45.16,22.87,65.65,37.92,19.98,14.67,38.36,31.12,55.04,49.48,12.13,13.35,23.18,27.52,32.84,42.75,5.15,8.13,9.67,16.6,14.01,25.2,3.17,6.28,7.01,12.21,11.02,18.01,8.91,12.9,19.09,24.67,31.3,34.57,11.68,9.48,24.44,16.92,39.33,20.15,10.81,2.35,21.44,1.94,31.76-2.32,11.43-4.71,19.64-12.99,25.81-23.5,2.47-4.21,4.49-8.62,6.11-13.23.14-.4.16-1,.69-1.04.55-.04.6.58.8.95,4.7,8.96,9.38,17.93,14.1,26.88.48.92.62,1.64.05,2.62-10.66,18.48-25.59,32.03-45.72,39.52-7.2,2.68-14.67,4.14-22.37,4.64-14.1.91-27.65-1.41-40.48-7.18-11.71-5.27-22.03-12.76-31.56-21.33-11.83-10.63-22.06-22.68-30.81-35.93-1.68-2.54-3.63-3.38-6.32-3.36-6.09.05-12.16.4-18.18,1.45-21.1,3.68-40.39,11.77-57.96,23.94-9.58,6.63-18.16,14.34-24.6,24.18-1.19,1.82-2.29,3.72-3.2,5.69-.58,1.25-1.18,1.47-2.43,1.02-9.45-3.43-18.92-6.82-28.39-10.21-20.63-7.38-41.26-14.75-61.89-22.14-15.58-5.58-31.14-11.2-46.72-16.77-.88-.32-2.01-1.33-2.73-.48-.62.74.3,1.87.67,2.77,2.68,6.41,7.58,10.98,12.78,15.28,3.45,2.86,7.11,5.42,11.15,7.4.26.12.6.2.55.52-.08.45-.55.5-.9.66-5.17,2.29-10.47,4.2-15.93,5.68-9.71,2.62-19.6,3.94-29.65,3.52-16.66-.69-32.19-5.39-46.66-13.64-10.96-6.25-20.69-14.09-29.39-23.19-11.94-12.5-21.58-26.65-29.48-41.99-12.04-23.39-19.75-48.21-24.32-74.06C1.5,109.52-.11,90.97.02,71.28ZM201.29,102.73c-1.67,1.54-3.58,2.47-5.3,3.65-10.21,7.02-18.7,15.79-25.87,25.82-12,16.79-20.2,35.14-22.04,55.94-.57,6.45-.17,12.84,1.8,19.08.38,1.19.98,1.99,2.24,2.46,21.29,7.88,42.56,15.79,63.84,23.71,16.14,6,32.27,12.03,48.42,18.01,7.65,2.84,15.33,5.6,22.99,8.39.84.3,1.57.7,2.27-.43,5.56-8.9,12.99-16.05,21.33-22.27,12.21-9.1,25.67-15.85,40.11-20.62,12.49-4.12,25.26-6.79,38.53-6.21,1.54.07,1.51-.62,1.1-1.73-2.96-8.06-7.57-15.23-12.59-22.07-7.1-9.66-15.64-18.08-24.36-26.29-12.42-11.7-25.2-22.97-38.61-33.52-20.24-15.92-41.34-30.59-63.58-43.6-12.42-7.26-25.17-13.86-38.47-19.36-10.43-4.31-21.2-7.28-32.44-8.56-8.6-.98-17.17-2.12-25.76-3.21-8.47-1.07-16.93-2.17-25.4-3.24-5.59-.71-11.19-1.38-16.78-2.1-8.47-1.08-16.93-2.19-25.4-3.27-6.48-.83-12.96-1.62-19.44-2.44-9.47-1.2-18.94-2.38-28.39-3.66-1.42-.19-1.94.29-2.43,1.52-4.36,11.12-6,22.79-6.65,34.59-.71,12.75.09,25.47,2.01,38.1,2.49,16.35,6.65,32.28,12.5,47.75,8.29,21.92,19.22,42.33,34.51,60.24,7.96,9.33,16.9,17.56,27.6,23.71,7.41,4.26,15.28,7.13,23.87,7.76.65.05,1.52.36,1.91-.17.45-.6-.3-1.22-.62-1.75-2.26-3.62-4.09-7.45-5.36-11.53-3.8-12.24-3.72-24.69-1.66-37.17,2.71-16.45,8.54-31.81,16.86-46.22,7.84-13.58,17.45-25.7,29.55-35.75,8.2-6.82,17.19-12.27,27.49-15.34.64-.2,1.31-.59,2.22-.21Z"/>
      <path class="cls-1" d="M262.61,168.94c-9.05,0-18.11,0-27.16,0-1.83,0-1.86-.04-.92-1.56,9.18-14.82,18.36-29.65,27.55-44.46.99-1.6,1.03-1.59,1.99-.01,8.99,14.87,17.98,29.75,26.96,44.62.22.37.69.76.47,1.18-.27.52-.91.3-1.39.3-9.17.01-18.33,0-27.5,0,0-.03,0-.05,0-.08ZM270.3,158.45c.85,0,.95-.34.55-1.02-2.47-4.24-4.93-8.48-7.39-12.73-.41-.71-.79-.68-1.21-.02-2.84,4.4-5.67,8.8-8.51,13.2"/>
    </g>
    <g>
      <path class="cls-1" d="M694,222.39h-47V83.92h47c23.4,0,41.64,6.34,54.7,19.01,13.07,12.68,19.6,29.42,19.6,50.22s-6.53,37.54-19.6,50.22c-13.07,12.68-31.3,19.01-54.7,19.01M730.76,187.97c8.39-8.39,12.58-19.99,12.58-34.81s-4.19-26.43-12.58-34.81c-8.39-8.38-20.9-12.58-37.54-12.58h-22.62v94.78h22.62c16.64,0,29.16-4.19,37.54-12.58"/>
      <polygon class="cls-1" points="890.98 200.54 890.98 222.39 793.66 222.39 793.66 83.92 890.98 83.92 890.98 105.76 817.26 105.76 817.26 141.26 887.66 141.26 887.66 163.1 817.26 163.1 817.26 200.54 890.98 200.54"/>
      <polygon class="cls-1" points="1005.45 200.54 1005.45 222.39 917.69 222.39 917.69 83.92 941.29 83.92 941.29 200.54 1005.45 200.54"/>
      <polygon class="cls-1" points="1093.41 83.92 1093.41 106.35 1053.23 106.35 1053.23 222.39 1029.64 222.39 1029.64 106.35 989.46 106.35 989.46 83.92 1093.41 83.92"/>
      <path class="cls-1" d="M1286.87,167.78v54.61h-23.6V83.92h57.34c15.73,0,27.4,3.87,35.01,11.6,7.61,7.74,11.41,17.91,11.41,30.52s-3.9,22.56-11.7,30.23c-7.8,7.67-19.37,11.51-34.71,11.51h-33.74ZM1286.87,145.94h33.93c7.54,0,13.17-1.75,16.87-5.27,3.71-3.51,5.56-8.39,5.56-14.63s-1.89-11.18-5.65-14.82c-3.77-3.64-9.36-5.46-16.77-5.46h-33.93v40.17Z"/>
      <path class="cls-1" d="M1384.38,222.39h-24.96l53.64-138.47h25.16l53.82,138.47h-25.74l-9.98-26.72h-61.94l-9.99,26.72ZM1425.51,113.18l-.3.02-22.81,61.01h45.9l-22.79-61.04Z"/>
      <polygon class="cls-1" points="1576.48 83.92 1603.98 83.92 1552.3 173.83 1552.3 222.39 1528.7 222.39 1528.7 173.83 1477.02 83.92 1504.32 83.92 1540.36 149.36 1540.44 149.36 1576.48 83.92"/>
      <path class="cls-1" d="M1165.01,84.3l-79.72,138.08h159.45l-79.72-138.08ZM1164.98,130.31l39.99,69.27h-79.99l39.99-69.27Z"/>
      <polygon class="cls-1" points="1629.12 83.92 1629.12 87.83 1622.12 87.83 1622.12 108.04 1618.01 108.04 1618.01 87.83 1611.01 87.83 1611.01 83.92 1629.12 83.92"/>
      <polygon class="cls-1" points="1635.98 83.92 1643.65 93.99 1651.34 83.92 1655 83.92 1655 108.04 1650.96 108.04 1650.96 90.41 1643.65 99.85 1643.54 99.84 1636.25 90.39 1636.25 108.04 1632.21 108.04 1632.21 83.92 1635.98 83.92"/>
    </g>
  </g>
</svg>