<svg width="30" height="28" viewBox="0 0 30 28" fill="none" xmlns="http://www.w3.org/2000/svg">
<path d="M15 0C11.0651 0 10.5703 0.0175 9.02419 0.084C7.47813 0.154 6.42506 0.3885 5.5025 0.735C4.53434 1.08557 3.65763 1.63695 2.93419 2.35025C2.19541 3.04875 1.62434 3.89523 1.26125 4.83C0.902375 5.719 0.657688 6.7375 0.587 8.225C0.518125 9.72125 0.5 10.1973 0.5 14.0018C0.5 17.8027 0.518125 18.2788 0.587 19.7715C0.6595 21.2625 0.902375 22.2792 1.26125 23.17C1.63281 24.0905 2.12763 24.871 2.93419 25.6497C3.73894 26.4285 4.54731 26.908 5.50069 27.265C6.42506 27.6115 7.47631 27.8477 9.02056 27.916C10.5684 27.9825 11.0614 28 15 28C18.9386 28 19.4298 27.9825 20.9776 27.916C22.5201 27.846 23.5767 27.6115 24.4993 27.265C25.4668 26.9142 26.3429 26.3628 27.0658 25.6497C27.8724 24.871 28.3672 24.0905 28.7388 23.17C29.0958 22.2792 29.3405 21.2625 29.413 19.7715C29.4819 18.2788 29.5 17.8027 29.5 14C29.5 10.1972 29.4819 9.72125 29.413 8.22675C29.3405 6.7375 29.0958 5.719 28.7388 4.83C28.3757 3.89523 27.8046 3.04875 27.0658 2.35025C26.3424 1.63695 25.4657 1.08557 24.4975 0.735C23.5731 0.3885 22.5182 0.15225 20.9758 0.084C19.4279 0.0175 18.9368 0 14.9964 0H15ZM13.7004 2.5235H15.0018C18.8733 2.5235 19.3319 2.53575 20.8598 2.604C22.2736 2.66525 23.0421 2.8945 23.5532 3.08525C24.2292 3.339 24.7132 3.6435 25.2207 4.1335C25.7282 4.6235 26.0417 5.089 26.3046 5.7435C26.5039 6.23525 26.7396 6.97725 26.803 8.34225C26.8737 9.8175 26.8882 10.2603 26.8882 13.9965C26.8882 17.7327 26.8737 18.1772 26.803 19.6525C26.7396 21.0175 26.5021 21.7577 26.3046 22.2513C26.0704 22.8583 25.6996 23.4076 25.2189 23.8595C24.7114 24.3495 24.2292 24.6523 23.5514 24.906C23.0439 25.0985 22.2754 25.326 20.8598 25.389C19.3319 25.4555 18.8733 25.4713 15.0018 25.4713C11.1303 25.4713 10.6699 25.4555 9.142 25.389C7.72825 25.326 6.96156 25.0985 6.45044 24.906C5.8212 24.6807 5.25165 24.3233 4.78294 23.8595C4.30131 23.4073 3.92984 22.8574 3.69544 22.2495C3.49787 21.7577 3.26044 21.0158 3.197 19.6507C3.12812 18.1755 3.11363 17.7327 3.11363 13.993C3.11363 10.2532 3.12812 9.814 3.197 8.33875C3.26225 6.97375 3.49788 6.23175 3.69725 5.73825C3.96006 5.0855 4.27544 4.61825 4.78294 4.12825C5.29044 3.63825 5.77256 3.3355 6.45044 3.08175C6.96156 2.88925 7.72825 2.66175 9.142 2.59875C10.4796 2.53925 10.998 2.52175 13.7004 2.52V2.5235ZM22.7412 4.8475C22.5127 4.8475 22.2864 4.89095 22.0753 4.97538C21.8642 5.05981 21.6724 5.18356 21.5108 5.33956C21.3492 5.49556 21.2211 5.68076 21.1336 5.88459C21.0462 6.08842 21.0012 6.30688 21.0012 6.5275C21.0012 6.74812 21.0462 6.96658 21.1336 7.17041C21.2211 7.37423 21.3492 7.55944 21.5108 7.71544C21.6724 7.87144 21.8642 7.99519 22.0753 8.07962C22.2864 8.16405 22.5127 8.2075 22.7412 8.2075C23.2027 8.2075 23.6452 8.0305 23.9716 7.71544C24.2979 7.40038 24.4812 6.97306 24.4812 6.5275C24.4812 6.08194 24.2979 5.65462 23.9716 5.33956C23.6452 5.0245 23.2027 4.8475 22.7412 4.8475ZM15.0018 6.811C14.0141 6.79612 13.0332 6.9711 12.1163 7.32575C11.1993 7.68039 10.3646 8.20762 9.66065 8.87674C8.95674 9.54586 8.39772 10.3435 8.01615 11.2232C7.63458 12.1029 7.43807 13.0471 7.43807 14.0009C7.43807 14.9546 7.63458 15.8988 8.01615 16.7785C8.39772 17.6583 8.95674 18.4559 9.66065 19.125C10.3646 19.7941 11.1993 20.3214 12.1163 20.676C13.0332 21.0306 14.0141 21.2056 15.0018 21.1908C16.9567 21.1613 18.8211 20.3908 20.1928 19.0457C21.5644 17.7005 22.3332 15.8886 22.3332 14.0009C22.3332 12.1132 21.5644 10.3012 20.1928 8.95606C18.8211 7.6109 16.9567 6.84045 15.0018 6.811ZM15.0018 9.33275C15.6366 9.33275 16.2652 9.45347 16.8517 9.68802C17.4382 9.92257 17.9711 10.2664 18.4199 10.6998C18.8688 11.1332 19.2249 11.6477 19.4678 12.2139C19.7107 12.7802 19.8358 13.3871 19.8358 14C19.8358 14.6129 19.7107 15.2198 19.4678 15.7861C19.2249 16.3523 18.8688 16.8668 18.4199 17.3002C17.9711 17.7336 17.4382 18.0774 16.8517 18.312C16.2652 18.5465 15.6366 18.6672 15.0018 18.6672C13.7198 18.6672 12.4902 18.1755 11.5837 17.3002C10.6772 16.425 10.1679 15.2378 10.1679 14C10.1679 12.7622 10.6772 11.575 11.5837 10.6998C12.4902 9.82448 13.7198 9.33275 15.0018 9.33275Z" fill="#034C6D"/>
</svg>
