<svg width="30" height="28" viewBox="0 0 30 28" fill="none" xmlns="http://www.w3.org/2000/svg">
<path d="M0.5 2.0055C0.5 0.89775 1.45337 0 2.62969 0H27.3703C28.5466 0 29.5 0.89775 29.5 2.0055V25.9945C29.5 27.1023 28.5466 28 27.3703 28H2.62969C1.45337 28 0.5 27.1023 0.5 25.9945V2.0055ZM9.45919 23.4395V10.7958H5.10738V23.4395H9.45919ZM7.28419 9.0685C8.80125 9.0685 9.74556 8.099 9.74556 6.8845C9.71837 5.64375 8.80306 4.7005 7.31319 4.7005C5.82331 4.7005 4.85 5.6455 4.85 6.8845C4.85 8.099 5.79431 9.0685 7.25519 9.0685H7.28419ZM16.1799 23.4395V16.3783C16.1799 16.0002 16.2089 15.6222 16.3249 15.3527C16.6385 14.5985 17.3544 13.8162 18.5579 13.8162C20.133 13.8162 20.7619 14.9748 20.7619 16.6758V23.4395H25.1137V16.1875C25.1137 12.3025 22.9677 10.4965 20.104 10.4965C17.7949 10.4965 16.7599 11.7215 16.1799 12.5842V12.628H16.1509L16.1799 12.5842V10.7958H11.8299C11.8843 11.9823 11.8299 23.4395 11.8299 23.4395H16.1799Z" fill="#034C6D"/>
</svg>
