<?xml version="1.0" encoding="UTF-8"?>
<svg id="Layer_2" data-name="Layer 2" xmlns="http://www.w3.org/2000/svg" viewBox="0 0 4332 595.09">
  <defs>
    <style>
      .cls-1 {
        fill: #144b6c;
      }
    </style>
  </defs>
  <g id="Layer_1-2" data-name="Layer 1">
    <g>
      <path class="cls-1" d="M201.99,595.09H0V0h201.99C302.57,0,380.93,27.24,437.09,81.72c56.16,54.48,84.23,126.43,84.23,215.82s-28.08,161.34-84.23,215.83c-56.16,54.48-134.52,81.72-235.1,81.72M359.98,447.15c36.04-36.04,54.06-85.9,54.06-149.61s-18.02-113.57-54.06-149.61c-36.04-36.04-89.83-54.06-161.34-54.06h-97.22v407.34h97.22c71.52,0,125.3-18.02,161.34-54.06"/>
      <polygon class="cls-1" points="1048.52 501.21 1048.52 595.09 630.29 595.09 630.29 0 1048.52 0 1048.52 93.87 731.69 93.87 731.69 246.42 1034.26 246.42 1034.26 340.29 731.69 340.29 731.69 501.21 1048.52 501.21"/>
      <polygon class="cls-1" points="1540.49 501.21 1540.49 595.09 1163.33 595.09 1163.33 0 1264.74 0 1264.74 501.21 1540.49 501.21"/>
      <polygon class="cls-1" points="1918.5 0 1918.5 96.39 1745.84 96.39 1745.84 595.08 1644.42 595.08 1644.42 96.39 1471.76 96.39 1471.76 0 1918.5 0"/>
      <path class="cls-1" d="M2749.91,360.4v234.68h-101.42V0h246.41c67.6,0,117.76,16.63,150.45,49.87,32.69,33.25,49.03,76.98,49.03,131.17s-16.77,96.95-50.29,129.91c-33.53,32.98-83.26,49.45-149.19,49.45h-145ZM2749.91,266.53h145.84c32.4,0,56.58-7.54,72.5-22.63,15.93-15.08,23.88-36.04,23.88-62.86s-8.1-48.05-24.3-63.7c-16.21-15.63-40.23-23.46-72.08-23.46h-145.84v172.65Z"/>
      <path class="cls-1" d="M3168.98,595.08h-107.28L3292.2,0h108.12l231.31,595.08h-110.63l-42.89-114.83h-266.18l-42.94,114.83ZM3345.75,125.75l-1.3.1-98.05,262.21h197.28l-97.93-262.31Z"/>
      <polygon class="cls-1" points="3994.55 0 4112.73 0 3890.62 386.38 3890.62 595.08 3789.21 595.08 3789.21 386.38 3567.09 0 3684.44 0 3839.34 281.22 3839.65 281.22 3994.55 0"/>
      <path class="cls-1" d="M2226.2,1.65l-342.62,593.43h685.23L2226.2,1.65ZM2226.09,199.37l171.88,297.71h-343.76l171.88-297.71Z"/>
      <polygon class="cls-1" points="4220.77 .02 4220.77 16.8 4190.71 16.8 4190.71 103.66 4173.04 103.66 4173.04 16.8 4142.97 16.8 4142.97 .02 4220.77 .02"/>
      <polygon class="cls-1" points="4250.26 .02 4283.2 43.26 4316.29 .02 4332 .02 4332 103.66 4314.63 103.66 4314.63 27.9 4283.22 68.46 4282.74 68.42 4251.42 27.8 4251.42 103.66 4234.05 103.66 4234.05 .02 4250.26 .02"/>
    </g>
  </g>
</svg>