<?xml version="1.0" encoding="UTF-8"?>
<svg id="Layer_2" xmlns="http://www.w3.org/2000/svg" xmlns:xlink="http://www.w3.org/1999/xlink" viewBox="0 0 1556.86 1151">
  <defs>
    <style>
      .cls-1 {
        fill: none;
      }

      .cls-2 {
        fill: #004e70;
      }

      .cls-3 {
        clip-path: url(#clippath-1);
      }

      .cls-4 {
        fill: #144b6c;
      }

      .cls-5 {
        clip-path: url(#clippath);
      }
    </style>
    <clipPath id="clippath">
      <rect class="cls-1" x="0" width="1556.86" height="1151"/>
    </clipPath>
    <clipPath id="clippath-1">
      <rect class="cls-1" x="0" y="0" width="1556.86" height="1151"/>
    </clipPath>
  </defs>
  <g id="Layer_1-2" data-name="Layer_1">
    <g id="Artwork_3">
      <g class="cls-5">
        <g class="cls-3">
          <path class="cls-4" d="M.06,191.44c-.37-26.16.98-54.96,3.84-83.63C7.38,72.77,12.69,37.98,20.25,3.56c.64-2.91,1.99-3.92,5.03-3.44,40.32,6.25,80.64,12.43,120.98,18.58,28.17,4.3,56.36,8.52,84.54,12.8,36.77,5.58,73.54,11.18,110.31,16.76,40.64,6.16,81.27,12.27,121.91,18.45,37.81,5.75,75.82,10.47,113.36,17.64,33.69,6.43,65.69,19.08,97.21,32.53,62.87,26.84,121.28,61.44,176.31,101.85,53.66,39.41,103.03,83.6,147.82,132.89,32.59,35.85,62.26,73.91,88.2,114.83,13.83,21.83,25.97,44.58,37.62,67.67,8.51,16.86,18.84,32.79,29.6,48.37,23.93,34.66,51.27,66.25,84.07,92.84,31.38,25.45,65.64,45.44,105.64,54.12,29.03,6.3,57.58,5.21,85.3-6.22,30.69-12.66,52.76-34.89,69.32-63.12,6.63-11.31,12.07-23.15,16.4-35.53.37-1.06.42-2.69,1.85-2.8,1.49-.11,1.61,1.56,2.14,2.55,12.63,24.06,25.2,48.16,37.87,72.2,1.3,2.46,1.67,4.41.14,7.04-28.63,49.63-68.73,86.02-122.79,106.15-19.35,7.2-39.41,11.13-60.08,12.45-37.88,2.43-74.27-3.78-108.73-19.29-31.45-14.15-59.16-34.28-84.78-57.3-31.79-28.56-59.25-60.91-82.76-96.51-4.52-6.83-9.76-9.08-16.97-9.02-16.36.14-32.66,1.06-48.83,3.88-56.67,9.9-108.47,31.61-155.67,64.31-25.72,17.82-48.77,38.51-66.08,64.94-3.2,4.88-6.14,10-8.6,15.29-1.57,3.37-3.18,3.95-6.53,2.73-25.39-9.22-50.83-18.32-76.26-27.42-55.41-19.83-110.82-39.61-166.22-59.46-41.83-14.99-83.63-30.08-125.48-45.03-2.37-.85-5.39-3.58-7.33-1.28-1.68,1.99.79,5.02,1.81,7.45,7.2,17.21,20.36,29.49,34.32,41.03,9.27,7.67,19.11,14.55,29.96,19.86.68.33,1.61.54,1.47,1.4-.21,1.22-1.49,1.35-2.42,1.77-13.89,6.14-28.12,11.29-42.79,15.26-26.09,7.04-52.64,10.57-79.63,9.45-44.74-1.86-86.46-14.46-125.32-36.63-29.44-16.8-55.58-37.84-78.93-62.29-32.06-33.57-57.96-71.57-79.18-112.79-32.34-62.83-53.05-129.48-65.31-198.92C4.02,294.15-.28,244.34.06,191.44M540.64,275.93c-4.49,4.14-9.61,6.63-14.23,9.81-27.42,18.85-50.22,42.4-69.48,69.36-32.24,45.11-54.25,94.38-59.19,150.26-1.53,17.31-.45,34.5,4.84,51.24,1.02,3.21,2.63,5.34,6.01,6.6,57.18,21.15,114.31,42.42,171.45,63.67,43.35,16.12,86.67,32.31,130.03,48.38,20.55,7.62,41.17,15.03,61.76,22.53,2.24.81,4.22,1.87,6.11-1.16,14.93-23.91,34.88-43.1,57.3-59.8,32.8-24.44,68.95-42.58,107.72-55.38,33.55-11.08,67.84-18.24,103.48-16.68,4.15.18,4.05-1.68,2.96-4.66-7.96-21.65-20.34-40.91-33.82-59.27-19.06-25.95-42-48.55-65.42-70.61-33.35-31.42-67.69-61.69-103.71-90.02-54.37-42.76-111.03-82.17-170.76-117.1-33.35-19.5-67.6-37.23-103.33-52-28-11.58-56.94-19.56-87.12-22.99-23.09-2.62-46.12-5.7-69.18-8.62-22.75-2.87-45.48-5.83-68.23-8.71-15.01-1.9-30.05-3.71-45.06-5.63-22.75-2.9-45.48-5.89-68.22-8.8-17.4-2.23-34.81-4.35-52.21-6.56-25.42-3.23-50.86-6.4-76.26-9.82-3.8-.51-5.22.77-6.52,4.09-11.71,29.87-16.11,61.2-17.87,92.9-1.9,34.25.23,68.41,5.41,102.33,6.7,43.92,17.85,86.69,33.57,128.25,22.26,58.88,51.63,113.7,92.68,161.78,21.39,25.05,45.38,47.15,74.12,63.69,19.89,11.45,41.04,19.14,64.11,20.85,1.75.13,4.07.96,5.13-.47,1.2-1.62-.79-3.29-1.67-4.7-6.08-9.73-10.99-20.02-14.38-30.97-10.2-32.88-9.99-66.3-4.47-99.84,7.29-44.19,22.94-85.43,45.29-124.15,21.05-36.46,46.87-69.01,79.36-96.02,22.03-18.32,46.17-32.95,73.84-41.2,1.73-.54,3.51-1.6,5.97-.57"/>
          <path class="cls-4" d="M781.64,449.94c-24.13-39.95-48.26-79.91-72.4-119.85-2.57-4.24-2.67-4.27-5.34.04-24.68,39.79-49.36,79.59-74.01,119.41-2.52,4.07-2.44,4.19,2.48,4.19,24.31.02,48.64,0,72.95,0,0,.06,0,.14,0,.21,24.62,0,49.23,0,73.85-.02,1.29,0,2.99.59,3.72-.81.59-1.13-.67-2.17-1.27-3.17M727.89,425.04c-.29.35-.9.52-1.9.52-14.65-.02-29.31,0-43.96,0h0c-.18-.51-.35-1.03-.52-1.54,7.62-11.82,15.24-23.64,22.85-35.46.21-.32.41-.59.63-.8.41-.42.82-.59,1.22-.51.27.06.53.23.8.52.21.23.41.5.61.86,6.6,11.41,13.21,22.81,19.85,34.19.6,1.04.78,1.78.41,2.23"/>
          <path class="cls-2" d="M706.21,387.24c-.4-.08-.8.09-1.22.51.41-.43.81-.6,1.22-.51"/>
          <path class="cls-2" d="M707.01,387.76c-.27-.29-.53-.46-.8-.52.27.05.54.23.8.52"/>
          <path class="cls-4" d="M1234.61,1117.74c0-6.16-.38-12.34.1-18.46.56-7.24-1.62-13.29-5.24-19.48-18.76-32.15-37.17-64.52-55.79-96.75-1.79-3.11-1.94-4.36,2.28-4.25,8.26.21,16.52.21,24.77,0,3.2-.08,4.8,1.17,6.26,3.88,12.73,23.49,25.59,46.91,38.43,70.35.5.92,1.06,1.81,1.54,2.75,1.51,2.97,2.77,2.51,4.2-.14,5.65-10.43,11.38-20.81,17.08-31.21,7.72-14.09,15.49-28.14,23.1-42.28,1.32-2.47,2.87-3.38,5.64-3.33,8.41.15,16.82.2,25.22,0,4.03-.1,4.29,1.04,2.42,4.26-19.29,33.41-38.47,66.89-57.8,100.27-2.18,3.77-3.32,7.48-3.26,11.87.19,16.21-.04,32.43.15,48.65.05,3.78-1.15,4.96-4.87,4.8-6.44-.26-12.91-.25-19.37,0-3.67.14-5.06-.96-4.95-4.79.23-8.7.07-17.41.07-26.12"/>
          <path class="cls-4" d="M1356.65,978.77c3.9,0,7.81.09,11.72-.04,2.42-.07,3.6.69,3.53,3.32-.06,2.32-.18,3.99-3.24,4.21-8.11.58-8.1.7-8.1,9.08,0,6.31-.13,12.62.04,18.92.1,3.6-1.98,3.68-4.64,3.73-2.81.06-4.06-.78-3.99-3.84.17-7.35.06-14.72.05-22.07,0-5.82-.02-5.9-5.95-5.83-3.16.04-5.73,0-5.32-4.41.22-2.33,1.02-3.15,3.29-3.09,4.19.1,8.4.03,12.61.03"/>
          <path class="cls-4" d="M1411.8,996.51c-2.47,4.91-4.97,9.81-7.39,14.75-.89,1.82-1.68,3.34-4.19,3.33-2.43,0-3.38-1.34-4.35-3.17-2.49-4.69-4.26-9.78-7.4-14.16-1.81.8-1.44,2.14-1.46,3.23-.06,4.06-.02,8.11-.04,12.16-.03,5.3-.43,5.57-5.66,5.33-2.28-.11-3.23-.89-3.21-3.21.05-10.96.05-21.92,0-32.88-.02-2.32.84-3.29,3.17-3.14,1.79.12,3.61.15,5.4,0,2.68-.24,4.07.95,5.07,3.37,1.6,3.88,3.48,7.65,5.36,11.41.83,1.66,1.05,4.5,3.15,4.4,1.97-.1,2.25-2.89,3.09-4.6,1.86-3.77,3.57-7.61,5.38-11.4,1.29-2.7,10.57-4.6,12.72-2.6.87.81.62,1.96.62,2.97.02,10.66-.11,21.32.07,31.98.06,3.66-1.97,3.67-4.59,3.71-2.65.04-4.27-.5-4.17-3.69.18-5.78.05-11.56.05-17.34-.57-.16-1.11-.31-1.64-.45"/>
          <path class="cls-4" d="M148.35,1065.75c0-26.42.07-52.84-.08-79.26-.02-3.89.72-5.43,5.08-5.36,19.66.3,39.34-.15,58.98.38,17.48.47,34.24,4.43,49.17,14.08,22.71,14.67,33.31,36.34,35.2,62.67,1.26,17.49-1,34.51-9.32,50.25-11.08,20.97-28.96,33.11-51.55,38.91-9.5,2.44-19.19,3.44-28.98,3.45-18.02.02-36.03-.07-54.04.1-3.61.04-4.56-1.13-4.54-4.62.13-26.86.07-53.73.07-80.59M177.38,1066.09v53.12c0,2.43-.32,4.93,3.45,4.87,12.15-.22,24.33.68,36.43-.79,18.37-2.25,33.75-9.59,42.58-26.93,6.13-12.02,6.94-24.96,6.07-38.17-1.71-25.89-17.81-43.85-43.38-48.5-13.42-2.44-26.94-1.08-40.41-1.6-3.82-.15-4.83,1.25-4.79,4.9.14,17.69.06,35.4.06,53.11"/>
          <path class="cls-4" d="M782.4,1148.49c-32.72,1.44-65.45,1.03-98.19,1.11-1.15,0-2.6.5-3.37-.65-.96-1.42.41-2.54,1.05-3.61,32-52.72,64.05-105.41,96.08-158.12,2.45-4.03,2.82-4.08,5.22-.32,32.89,51.8,65.79,103.61,98.64,155.44,1.01,1.6,3.22,3.34,2.33,5.05-1.07,2.05-3.84.98-5.83.98-24.77.09-49.55.08-74.32.1-7.2.03-14.4.02-21.6.02M781.3,1121.81c15.75,0,31.51.02,47.26,0,4.68,0,4.95-.52,2.52-4.44-15.84-25.62-31.7-51.24-47.57-76.85-2.78-4.49-2.85-4.5-5.64.14-14.92,24.79-29.85,49.58-44.7,74.4-1.12,1.87-3.79,3.83-2.69,5.78,1.24,2.17,4.41.92,6.7.94,14.71.1,29.41.05,44.11.05"/>
          <path class="cls-4" d="M328.95,1065.64c0-26.58.07-53.15-.08-79.73-.02-3.75,1-4.76,4.75-4.75,36.49.14,72.97.14,109.46,0,3.88-.02,5.34.87,5.09,4.96-.35,5.53-.32,11.12,0,16.65.23,4.09-1.04,5.44-5.28,5.42-26.28-.18-52.55-.09-78.83-.09q-6.28,0-6.28,6.43v30.18q0,6.7,6.94,6.71c24.62,0,49.25.11,73.87-.1,4.38-.04,5.79,1.24,5.52,5.58-.35,5.53-.29,11.11-.02,16.65.19,3.74-1.06,4.87-4.82,4.85-24.93-.14-49.85-.08-74.77-.07q-6.71,0-6.72,6.52c0,11.41.15,22.83-.08,34.24-.08,4.04,1.32,5.1,5.2,5.07,26.58-.14,53.15.02,79.73-.16,4.36-.03,5.81,1.25,5.55,5.59-.33,5.69-.2,11.41-.04,17.11.08,2.99-.71,4.25-4.01,4.24-37.08-.1-74.18-.12-111.26.02-3.85.02-3.94-1.84-3.94-4.7.06-26.87.04-53.75.04-80.63"/>
          <path class="cls-4" d="M1172,1148.58c-4.1-.5-10.31,2.1-13.91-.99-3.31-2.85-3.94-8.81-5.7-13.43-1.87-4.9-3.79-9.8-5.5-14.76-.85-2.46-2.14-3.61-4.88-3.6-22.96.07-45.93.08-68.9,0-2.74,0-4,1.18-4.88,3.61-3.1,8.61-6.43,17.14-9.51,25.76-.89,2.51-2.23,3.51-4.93,3.47-7.65-.15-15.31-.16-22.96,0-3.45.07-3.71-1.14-2.6-4,20.95-53.99,41.86-108.01,62.71-162.05,1.07-2.78,2.47-3.91,5.57-3.81,7.5.24,15.01.23,22.51,0,3.19-.09,4.8.94,5.97,3.97,18.43,47.73,36.98,95.41,55.5,143.1,2.39,6.16,4.64,12.36,7.26,18.43,1.58,3.64.39,4.49-3.11,4.33-3.88-.17-7.8-.04-12.64-.04M1108.12,1016.2c-1.69.23-1.75,1.29-2.04,2.06-8.49,22.47-16.91,44.95-25.45,67.39-1.24,3.25-.13,3.86,2.87,3.85,15.92-.07,31.83-.14,47.75.05,4.19.05,4.37-1.27,3.06-4.7-7.93-20.75-15.7-41.56-23.54-62.34-.83-2.19-1.8-4.32-2.65-6.32"/>
          <path class="cls-4" d="M909.17,1063.53c0-26.58.08-53.15-.09-79.73-.03-3.95,1.04-5.07,5.03-5.04,21.92.2,43.84.05,65.76.13,13.12.05,25.86,2.07,36.84,9.8,15.25,10.72,20.2,26.48,19.41,44.13-1.25,28.18-18.02,45.45-46.18,48.21-15.28,1.5-30.61.44-45.92.68-5.89.09-5.91.04-5.91,6.03,0,18.77-.08,37.54.06,56.31.03,3.51-.96,4.76-4.56,4.61-6.6-.26-13.22-.29-19.81,0-3.93.18-4.72-1.39-4.7-4.97.12-26.7.06-53.43.06-80.16M963.52,1005.98v-.24c-7.2,0-14.4.06-21.6-.04-2.62-.04-3.83.82-3.82,3.6.06,13.95.05,27.9,0,41.86,0,2.35.65,3.67,3.28,3.64,14.55-.14,29.13.35,43.65-.44,14.41-.78,22.26-10.14,21.99-24.41-.27-14.32-8.78-23.22-23.24-23.91-6.74-.32-13.5-.05-20.25-.05"/>
          <path class="cls-4" d="M647.05,1079.91c0,22.08-.08,44.15.08,66.23.03,3.69-.92,5.01-4.74,4.83-6.44-.3-12.92-.34-19.37,0-4.16.23-4.97-1.36-4.95-5.16.12-38.29.07-76.59.07-114.89,0-5.41,0-10.81,0-16.22q0-6.04-5.86-6.05c-12.91,0-25.83-.14-38.74.07-3.77.06-4.97-1.12-4.79-4.85.28-5.99.31-12.02,0-18.02-.21-3.84,1.13-4.74,4.8-4.72,32.88.14,65.78.08,98.66.08,6.76,0,13.52.11,20.28-.05,2.84-.06,4.03.71,3.93,3.79-.21,6.45-.21,12.91,0,19.37.11,3.33-.98,4.43-4.37,4.39-13.36-.16-26.73.1-40.09-.16-4.09-.08-5.01,1.26-4.98,5.12.17,22.08.08,44.16.08,66.23"/>
          <path class="cls-4" d="M480.74,1065.71c0-26.12-.02-52.22.02-78.34,0-6.83-.83-6.06,5.88-6.11,5.25-.05,10.51-.05,15.76,0,8.35.09,7.26-1.03,7.27,7.06.04,43.07.02,86.15.02,129.21q0,6.56,6.75,6.57c22.21,0,44.42.1,66.64-.09,4.19-.04,5.56,1.23,5.34,5.38-.31,5.84-.17,11.71-.04,17.56.06,2.79-.7,4.01-3.78,4-33.47-.09-66.93-.11-100.4.02-3.88.02-3.46-2.23-3.46-4.66,0-26.87,0-53.73,0-80.59"/>
        </g>
      </g>
    </g>
  </g>
</svg>