<svg width="25" height="28" viewBox="0 0 25 28" fill="none" xmlns="http://www.w3.org/2000/svg">
<path d="M14.5 0H17.965C18.217 1.25125 18.91 2.82975 20.1263 4.396C21.3162 5.93075 22.8948 7 25 7V10.5C21.9323 10.5 19.6275 9.0755 18 7.29925V19.25C18 20.9806 17.4868 22.6723 16.5254 24.1112C15.5639 25.5502 14.1973 26.6717 12.5985 27.3339C10.9996 27.9962 9.2403 28.1695 7.54296 27.8319C5.84563 27.4942 4.28653 26.6609 3.06282 25.4372C1.83911 24.2135 1.00575 22.6544 0.668133 20.957C0.330512 19.2597 0.503791 17.5004 1.16606 15.9015C1.82832 14.3027 2.94983 12.9361 4.38876 11.9746C5.82769 11.0132 7.51942 10.5 9.25 10.5V14C8.21165 14 7.19662 14.3079 6.33326 14.8848C5.4699 15.4617 4.797 16.2816 4.39964 17.2409C4.00228 18.2002 3.89831 19.2558 4.10088 20.2742C4.30345 21.2926 4.80347 22.2281 5.53769 22.9623C6.27192 23.6965 7.20738 24.1965 8.22578 24.3991C9.24418 24.6017 10.2998 24.4977 11.2591 24.1004C12.2184 23.703 13.0383 23.0301 13.6152 22.1667C14.1921 21.3034 14.5 20.2883 14.5 19.25V0Z" fill="#034C6D"/>
</svg>
