<svg width="30" height="24" viewBox="0 0 30 24" fill="none" xmlns="http://www.w3.org/2000/svg">
<path d="M9.60962 24C20.5535 24 26.5402 14.7642 26.5402 6.76892C26.5426 6.50924 26.539 6.24956 26.5293 5.98988C27.6945 5.13007 28.7003 4.0662 29.5 2.8479C28.4109 3.33576 27.2573 3.65795 26.0762 3.80415C27.3206 3.04673 28.2526 1.85474 28.6989 0.449871C27.5303 1.15639 26.2505 1.65167 24.9162 1.91379C24.0193 0.940965 22.8325 0.296496 21.5397 0.0802122C20.2468 -0.136072 18.9199 0.0878992 17.7647 0.717433C16.6094 1.34697 15.6902 2.34693 15.1494 3.56243C14.6087 4.77793 14.4765 6.14114 14.7734 7.44088C12.4075 7.32063 10.0929 6.69491 7.97988 5.60436C5.86683 4.51381 4.00261 2.98281 2.50825 1.11076C1.74987 2.44572 1.51854 4.02454 1.8612 5.52686C2.20387 7.02917 3.09486 8.34244 4.35337 9.20017C3.4098 9.16912 2.48685 8.91102 1.66 8.44698V8.53006C1.66231 9.92822 2.13817 11.2828 3.00727 12.365C3.87637 13.4473 5.08548 14.191 6.4305 14.4707C5.91987 14.614 5.39236 14.6854 4.86269 14.683C4.48917 14.6869 4.11624 14.6516 3.74981 14.5777C4.12934 15.7819 4.86953 16.8348 5.86652 17.5887C6.8635 18.3426 8.06722 18.7596 9.30875 18.7812C7.19919 20.4666 4.59488 21.3813 1.91375 21.3786C1.44123 21.3822 0.968978 21.3545 0.5 21.2955C3.22133 23.0631 6.38204 24.0014 9.60962 24Z" fill="#034C6D"/>
</svg>
